<?xml version="1.0" encoding="UTF-8" standalone="no"?>
<!-- Created with Inkscape (http://www.inkscape.org/) -->

<svg
   version="1.1"
   id="svg2"
   width="1000"
   height="666.66669"
   viewBox="0 0 1000 666.66669"
   sodipodi:docname="hair-docotr.svg"
   inkscape:version="1.2 (1:1.2+202206011327+fc4e4096c5)"
   xmlns:inkscape="http://www.inkscape.org/namespaces/inkscape"
   xmlns:sodipodi="http://sodipodi.sourceforge.net/DTD/sodipodi-0.dtd"
   xmlns="http://www.w3.org/2000/svg"
   xmlns:svg="http://www.w3.org/2000/svg">
  <defs
     id="defs6">
    <clipPath
       clipPathUnits="userSpaceOnUse"
       id="clipPath22">
      <path
         d="M 7309.2,220.801 H 289.199 V 4710.8 H 7309.2 V 220.801 M 543.668,577.93 v 0 H 6956.33 v 3878.4 H 543.668 V 577.93"
         id="path20" />
    </clipPath>
    <clipPath
       clipPathUnits="userSpaceOnUse"
       id="clipPath44">
      <path
         d="M 3177.21,1585.92 C 4295.05,1114.01 6232.48,1783.09 6956.33,577.93 H 543.668 V 3314.08 C 1993.89,3235.3 2101.1,2040.21 3177.21,1585.92"
         clip-rule="evenodd"
         id="path42" />
    </clipPath>
    <clipPath
       clipPathUnits="userSpaceOnUse"
       id="clipPath268">
      <path
         d="m 3304.19,1999.79 c 4.17,95.07 55.07,315.93 59.95,383.01 5.79,79.63 -7.11,132.46 -6.21,206.16 0.79,65.45 -4.21,156.07 26.23,233.22 13.72,-0.18 30.92,0.04 50.38,0.25 105.22,1.16 276.48,2.32 320.81,-57.84 61.81,-83.84 -60.16,-229.08 -43.69,-373.61 7.33,-64.35 65.6,-243.04 61.11,-402.98 -99.64,-40.61 -199.75,-37.96 -282.24,-29.14 -10.65,35.46 -21.85,84.48 -23.44,115.24 -3.76,-16.7 -8.63,-62.13 -24.37,-108.31 -53.67,9.9 -122.02,23.02 -138.53,34"
         clip-rule="evenodd"
         id="path266" />
    </clipPath>
  </defs>
  <sodipodi:namedview
     id="namedview4"
     pagecolor="#ffffff"
     bordercolor="#666666"
     borderopacity="1.0"
     inkscape:showpageshadow="2"
     inkscape:pageopacity="0.0"
     inkscape:pagecheckerboard="0"
     inkscape:deskcolor="#d1d1d1"
     showgrid="false"
     inkscape:zoom="0.89731848"
     inkscape:cx="629.09659"
     inkscape:cy="376.67785"
     inkscape:window-width="1920"
     inkscape:window-height="1021"
     inkscape:window-x="0"
     inkscape:window-y="31"
     inkscape:window-maximized="1"
     inkscape:current-layer="g12">
    <inkscape:page
       x="0"
       y="0"
       id="page8"
       width="1000"
       height="666.66669" />
  </sodipodi:namedview>
  <g
     id="g10"
     inkscape:groupmode="layer"
     inkscape:label="Page 1"
     transform="matrix(1.3333333,0,0,-1.3333333,0,666.66667)">
    <g
       id="g12"
       transform="scale(0.1)">
      <path
         d="M 151.52136,161.92357 H 7306.6095 V 4793.3773 H 151.52136 Z"
         style="fill:#ffffff;fill-opacity:1;fill-rule:evenodd;stroke:none;stroke-width:1.1543"
         id="path28" />
      <path
         d="M 151.52136,161.92357 H 7306.6095 V 4793.3773 H 151.52136 Z"
         style="fill:#ffffff;fill-opacity:1;fill-rule:evenodd;stroke:none;stroke-width:1.1543"
         id="path30" />
      <path
         d="m 3445.1251,1889.4759 c 1070.2406,-517.5397 2800.9756,249.1268 3861.4866,-572.0295 V 161.92357 H 151.52136 L 163.61637,3538.9894 C 1678.5738,3728.0856 2324.8867,2431.1974 3445.1251,1889.4759"
         style="fill:#9e99d4;fill-opacity:1;fill-rule:evenodd;stroke:none;stroke-width:1.1543"
         id="path32" />
      <path
         d="M 877.67026,3392.513 C 1948.5133,3266.4449 2330.8337,2078.1422 3435.2394,1693.9192 4539.645,1309.6963 6244.2485,1815.8794 6969.4467,1027.3596 6089.0442,1628.8133 4549.3745,1025.3653 3365.1687,1448.3868 2180.9628,1871.432 1770.5918,3170.3742 877.67026,3392.513"
         style="fill:#ada9dc;fill-opacity:1;fill-rule:evenodd;stroke:none;stroke-width:1.1543"
         id="path34" />
      <path
         d="M 3089.9627,1365.631 C 4337.221,802.09208 6498.9578,1601.0848 7306.6117,161.92357 H 151.52136 V 3429.341 C 1769.6433,3335.2647 1889.2656,1908.1287 3089.9627,1365.631"
         style="fill:#ada9dc;fill-opacity:1;fill-rule:evenodd;stroke:none;stroke-width:1.1543"
         id="path36" />
      <g
         id="g38"
         transform="matrix(1.1157754,0,0,1.1941661,-455.09001,-528.22083)">
        <g
           id="g40"
           clip-path="url(#clipPath44)">
          <path
             d="M 87.4414,3310.7 C 1425.11,3034.22 1413.29,1807.09 2272.7,1220.02 3132.11,632.949 4920.27,1015.94 5121.64,-233.309 4708.93,451.609 2640.7,232.922 1721.79,871.301 802.887,1509.67 1033.06,3055.96 87.4414,3310.7"
             style="fill:#9e99d4;fill-opacity:1;fill-rule:evenodd;stroke:none"
             id="path46" />
        </g>
      </g>
      <path
         d="m 4093.201,689.43445 c 28.5303,0 51.8055,16.01379 51.8055,35.64588 0,19.6321 -23.2752,35.63391 -51.8055,35.63391 -28.5416,0 -51.8055,-16.00181 -51.8055,-35.63391 0,-19.63209 23.2639,-35.64588 51.8055,-35.64588"
         style="fill:#d8d4ee;fill-opacity:1;fill-rule:evenodd;stroke:none;stroke-width:1.1543"
         id="path48" />
      <path
         d="m 4439.8389,438.94621 c 67.259,0 122.1104,37.73804 122.1104,84.01198 0,46.27392 -54.8514,84.00599 -122.1104,84.00599 -67.2478,0 -122.0993,-37.73207 -122.0993,-84.00599 0,-46.27394 54.8515,-84.01198 122.0993,-84.01198"
         style="fill:#d8d4ee;fill-opacity:1;fill-rule:evenodd;stroke:none;stroke-width:1.1543"
         id="path50" />
      <path
         d="m 1668.3979,2372.4563 c 28.5304,0 51.8055,16.0138 51.8055,35.6459 0,19.6321 -23.2751,35.6339 -51.8055,35.6339 -28.5303,0 -51.7943,-16.0018 -51.7943,-35.6339 0,-19.6321 23.264,-35.6459 51.7943,-35.6459"
         style="fill:#d8d4ee;fill-opacity:1;fill-rule:evenodd;stroke:none;stroke-width:1.1543"
         id="path52" />
      <path
         d="m 1141.6181,2771.3317 c 67.2589,0 122.1104,37.7356 122.1104,83.9977 0,46.2739 -54.8515,84.0095 -122.1104,84.0095 -67.2479,0 -122.0994,-37.7356 -122.0994,-84.0095 0,-46.2621 54.8515,-83.9977 122.0994,-83.9977"
         style="fill:#d8d4ee;fill-opacity:1;fill-rule:evenodd;stroke:none;stroke-width:1.1543"
         id="path54" />
      <path
         d="m 862.4064,3009.2573 c 45.32279,0 82.28846,25.4358 82.28846,56.6155 0,31.1796 -36.96567,56.6154 -82.28846,56.6154 -45.32279,0 -82.28846,-25.4358 -82.28846,-56.6154 0,-31.1797 36.96567,-56.6155 82.28846,-56.6155"
         style="fill:#d8d4ee;fill-opacity:1;fill-rule:evenodd;stroke:none;stroke-width:1.1543"
         id="path56" />
      <path
         d="m 843.37125,2812.9125 c 28.53035,0 51.79427,16.0019 51.79427,35.634 0,19.632 -23.26392,35.6339 -51.79427,35.6339 -28.53036,0 -51.80538,-16.0019 -51.80538,-35.6339 0,-19.6321 23.27502,-35.634 51.80538,-35.634"
         style="fill:#d8d4ee;fill-opacity:1;fill-rule:evenodd;stroke:none;stroke-width:1.1543"
         id="path58" />
      <path
         d="m 4865.6299,931.79045 c 28.5416,0 51.8055,16.01379 51.8055,35.64588 0,19.6321 -23.2639,35.63387 -51.8055,35.63387 -28.5192,0 -51.7942,-16.00177 -51.7942,-35.63387 0,-19.63209 23.275,-35.64588 51.7942,-35.64588"
         style="fill:#d8d4ee;fill-opacity:1;fill-rule:evenodd;stroke:none;stroke-width:1.1543"
         id="path60" />
      <path
         d="m 5037.9168,698.05639 c 67.2478,0 122.0994,37.73558 122.0994,84.00961 0,46.27391 -54.8516,84.0095 -122.0994,84.0095 -67.2477,0 -122.0993,-37.73559 -122.0993,-84.0095 0,-46.27403 54.8516,-84.00961 122.0993,-84.00961"
         style="fill:#d8d4ee;fill-opacity:1;fill-rule:evenodd;stroke:none;stroke-width:1.1543"
         id="path62" />
      <path
         d="m 1475.0341,2286.2614 c 45.3228,0 82.2883,25.4357 82.2883,56.6155 0,31.1796 -36.9655,56.6154 -82.2883,56.6154 -45.3228,0 -82.2885,-25.4358 -82.2885,-56.6154 0,-31.1798 36.9657,-56.6155 82.2885,-56.6155"
         style="fill:#d8d4ee;fill-opacity:1;fill-rule:evenodd;stroke:none;stroke-width:1.1543"
         id="path64" />
      <path
         d="m 4067.3262,454.91341 c 45.3228,0 82.2883,25.43692 82.2883,56.61541 0,31.18923 -36.9655,56.62497 -82.2883,56.62497 -45.3228,0 -82.2774,-25.43574 -82.2774,-56.62497 0,-31.17849 36.9546,-56.61541 82.2774,-56.61541"
         style="fill:#d8d4ee;fill-opacity:1;fill-rule:evenodd;stroke:none;stroke-width:1.1543"
         id="path66" />
      <path
         d="m 5380.7165,917.40085 c 45.3228,0 82.2885,25.4237 82.2885,56.6154 0,31.17965 -36.9657,56.60345 -82.2885,56.60345 -45.3228,0 -82.2773,-25.4238 -82.2773,-56.60345 0,-31.1917 36.9545,-56.6154 82.2773,-56.6154"
         style="fill:#d8d4ee;fill-opacity:1;fill-rule:evenodd;stroke:none;stroke-width:1.1543"
         id="path68" />
      <path
         d="m 465.8297,783.73776 c 45.32392,0 82.28397,25.43579 82.28397,56.60354 0,31.19159 -36.96005,56.62728 -82.28397,56.62728 -45.32836,0 -82.28843,-25.43569 -82.28843,-56.62728 0,-31.16775 36.96007,-56.60354 82.28843,-56.60354"
         style="fill:#d8d4ee;fill-opacity:1;fill-rule:evenodd;stroke:none;stroke-width:1.1543"
         id="path70" />
      <path
         d="m 726.00288,647.68767 c 67.24772,0 122.09925,37.73438 122.09925,84.0084 0,46.26194 -54.85153,83.99764 -122.09925,83.99764 -67.24783,0 -122.10043,-37.7357 -122.10043,-83.99764 0,-46.27402 54.8526,-84.0084 122.10043,-84.0084"
         style="fill:#d8d4ee;fill-opacity:1;fill-rule:evenodd;stroke:none;stroke-width:1.1543"
         id="path72" />
      <path
         d="m 662.54877,1001.673 c 28.53035,0 51.79427,16.002 51.79427,35.6459 0,19.6201 -23.26392,35.6339 -51.79427,35.6339 -28.53266,0 -51.80327,-16.0138 -51.80327,-35.6339 0,-19.6439 23.27061,-35.6459 51.80327,-35.6459"
         style="fill:#d8d4ee;fill-opacity:1;fill-rule:evenodd;stroke:none;stroke-width:1.1543"
         id="path74" />
      <path
         d="m 2788.0897,1025.2817 c 28.5303,0 51.7942,16.0138 51.7942,35.6339 0,19.6441 -23.2639,35.6459 -51.7942,35.6459 -28.5304,0 -51.8055,-16.0018 -51.8055,-35.6459 0,-19.6201 23.2751,-35.6339 51.8055,-35.6339"
         style="fill:#d8d4ee;fill-opacity:1;fill-rule:evenodd;stroke:none;stroke-width:1.1543"
         id="path76" />
      <path
         d="m 3011.825,1118.9641 c 45.3228,0 82.2884,25.4358 82.2884,56.6273 0,31.1798 -36.9656,56.6155 -82.2884,56.6155 -45.3228,0 -82.2885,-25.4357 -82.2885,-56.6155 0,-31.1915 36.9657,-56.6273 82.2885,-56.6273"
         style="fill:#d8d4ee;fill-opacity:1;fill-rule:evenodd;stroke:none;stroke-width:1.1543"
         id="path78" />
      <path
         d="m 518.93838,1819.3424 c 28.53038,0 51.80546,16.0138 51.80546,35.634 0,19.644 -23.27508,35.6458 -51.80546,35.6458 -28.52591,0 -51.80099,-16.0018 -51.80099,-35.6458 0,-19.6202 23.27508,-35.634 51.80099,-35.634"
         style="fill:#d8d4ee;fill-opacity:1;fill-rule:evenodd;stroke:none;stroke-width:1.1543"
         id="path80" />
      <path
         d="m 436.32749,1624.3113 c 45.32391,0 82.28843,25.4357 82.28843,56.6154 0,31.1797 -36.96452,56.6035 -82.28843,56.6035 -45.31945,0 -82.27951,-25.4238 -82.27951,-56.6035 0,-31.1797 36.96006,-56.6154 82.27951,-56.6154"
         style="fill:#d8d4ee;fill-opacity:1;fill-rule:evenodd;stroke:none;stroke-width:1.1543"
         id="path82" />
      <path
         d="m 4487.5049,1337.3651 c 45.3115,0 82.2883,25.4238 82.2883,56.6154 0,31.1797 -36.9768,56.6035 -82.2883,56.6035 -45.334,0 -82.2885,-25.4238 -82.2885,-56.6035 0,-31.1916 36.9545,-56.6154 82.2885,-56.6154"
         style="fill:#d8d4ee;fill-opacity:1;fill-rule:evenodd;stroke:none;stroke-width:1.1543"
         id="path84" />
      <path
         d="m 4275.5075,1430.8325 c 28.5192,0 51.7943,16.0138 51.7943,35.6339 0,19.6441 -23.2751,35.6339 -51.7943,35.6339 -28.5416,0 -51.8055,-15.9898 -51.8055,-35.6339 0,-19.6201 23.2639,-35.6339 51.8055,-35.6339"
         style="fill:#d8d4ee;fill-opacity:1;fill-rule:evenodd;stroke:none;stroke-width:1.1543"
         id="path86" />
      <path
         d="m 3028.5169,1742.6532 c 28.5305,0 51.7944,16.0137 51.7944,35.6339 0,19.6321 -23.2639,35.6459 -51.7944,35.6459 -28.5415,0 -51.8054,-16.0138 -51.8054,-35.6459 0,-19.6202 23.2639,-35.6339 51.8054,-35.6339"
         style="fill:#d8d4ee;fill-opacity:1;fill-rule:evenodd;stroke:none;stroke-width:1.1543"
         id="path88" />
      <path
         d="m 1651.5274,2998.0441 c 28.5303,0 51.7943,16.0138 51.7943,35.6459 0,19.6321 -23.264,35.6339 -51.7943,35.6339 -28.5304,0 -51.8055,-16.0018 -51.8055,-35.6339 0,-19.6321 23.2751,-35.6459 51.8055,-35.6459"
         style="fill:#d8d4ee;fill-opacity:1;fill-rule:evenodd;stroke:none;stroke-width:1.1543"
         id="path90" />
      <path
         d="m 1569.2278,2012.5347 c 621.0406,0 1127.5691,18.4499 1127.5691,41.0793 0,22.6294 -506.5285,41.0793 -1127.5691,41.0793 -621.04054,0 -1127.5524,-18.4499 -1127.5524,-41.0793 0,-22.6294 506.51186,-41.0793 1127.5524,-41.0793"
         style="fill:#6e70af;fill-opacity:1;fill-rule:evenodd;stroke:none;stroke-width:1.1543"
         id="path168" />
      <path
         d="M 496.19107,2053.614 H 2642.2578 V 3979.0515 H 496.19107 V 2053.614"
         style="fill:#d8d4ee;fill-opacity:1;fill-rule:evenodd;stroke:none;stroke-width:1.1543"
         id="path170" />
      <path
         d="m 681.39412,2529.8354 1881.08578,-0.012 v 11.4639 H 681.39412"
         style="fill:#ffffff;fill-opacity:1;fill-rule:nonzero;stroke:none;stroke-width:1.1543"
         id="path172" />
      <path
         d="M 681.26029,3157.1906 H 2562.346 v 11.4659 H 681.26029 Z"
         style="fill:#ffffff;fill-opacity:1;fill-rule:nonzero;stroke:none;stroke-width:1.1543"
         id="path174" />
      <path
         d="M 681.19332,3470.8623 H 2562.2791 v 11.4611 H 681.19332 Z"
         style="fill:#ffffff;fill-opacity:1;fill-rule:nonzero;stroke:none;stroke-width:1.1543"
         id="path176" />
      <path
         d="M 681.12635,3784.5457 H 2562.2121 v 11.4613 H 681.12635 Z"
         style="fill:#ffffff;fill-opacity:1;fill-rule:nonzero;stroke:none;stroke-width:1.1543"
         id="path178" />
      <path
         d="M 681.32726,2843.5071 H 2562.4129 v 11.4658 H 681.32726 Z"
         style="fill:#ffffff;fill-opacity:1;fill-rule:nonzero;stroke:none;stroke-width:1.1543"
         id="path180" />
      <path
         d="m 2567.7686,2202.8728 -0.011,1574.1975 h -10.7114 l 0.011,-1574.1975"
         style="fill:#ffffff;fill-opacity:1;fill-rule:nonzero;stroke:none;stroke-width:1.1543"
         id="path182" />
      <path
         d="m 1807.1222,2209.4766 -0.012,1574.1974 h -10.7115 l 0.011,-1574.1974"
         style="fill:#ffffff;fill-opacity:1;fill-rule:nonzero;stroke:none;stroke-width:1.1543"
         id="path184" />
      <path
         d="m 1426.7991,2212.7844 -0.012,1574.1855 h -10.7113 l 0.012,-1574.1855"
         style="fill:#ffffff;fill-opacity:1;fill-rule:nonzero;stroke:none;stroke-width:1.1543"
         id="path186" />
      <path
         d="m 1046.4758,2216.0922 -0.012,1574.1856 h -10.7115 l 0.011,-1574.1856"
         style="fill:#ffffff;fill-opacity:1;fill-rule:nonzero;stroke:none;stroke-width:1.1543"
         id="path188" />
      <path
         d="m 2187.4455,2206.1686 -0.012,1574.2095 h -10.7113 l 0.011,-1574.2095"
         style="fill:#ffffff;fill-opacity:1;fill-rule:nonzero;stroke:none;stroke-width:1.1543"
         id="path190" />
      <path
         d="M 670.68277,3790.2778 V 2219.7703 c 0,-3.0213 1.13807,-5.9708 3.13523,-8.1084 1.99726,-2.1257 4.75321,-3.3557 7.57612,-3.3557 H 2475.0254 c 5.9136,0 10.7114,5.135 10.7114,11.4641 0,6.3291 -4.7978,11.464 -10.7114,11.464 H 692.10558 v 1559.0435 c 0,6.3291 -4.79785,11.4639 -10.71146,11.4639 -5.92471,0 -10.71135,-5.1348 -10.71135,-11.4639"
         style="fill:#ffffff;fill-opacity:1;fill-rule:nonzero;stroke:none;stroke-width:1.1543"
         id="path192" />
      <path
         d="m 671.47488,2224.0932 c -4.79775,-12.8135 12.01691,-22.6056 19.30293,-9.852 l 0.52444,1.1942 354.41495,929.2165 369.1877,-304.4885 c 4.2511,-3.487 10.2874,-3.1167 14.0699,0.9315 0.9931,1.0627 1.7518,2.2689 2.2762,3.5705 l 372.4124,914.982 369.4667,-603.0181 c 3.9944,-6.4007 10.9234,-6.3409 15.42,-2.7824 l 0.078,-0.012 276.3218,227.9901 33.5067,-46.5246 63.8224,141.2937 -143.8905,-30.1288 33.4845,-46.477 -267.1725,-220.4311 c -124.4423,203.1038 -251.7524,405.9806 -373.9856,610.398 -3.7266,5.7679 -12.2846,7.9292 -17.7184,0.3225 l -1.06,-2.0302 -374.8336,-920.9528 -369.4555,304.7035 -0.056,-0.024 c -4.5859,3.6901 -11.7491,3.6781 -15.8664,-3.5347 l -0.5244,-1.1941 -359.72603,-943.1524"
         style="fill:#ffffff;fill-opacity:1;fill-rule:evenodd;stroke:none;stroke-width:1.1543"
         id="path194" />
      <path
         d="m 1729.8325,1832.8843 c 6.1479,31.7171 19.9612,57.0095 41.1832,79.5673 18.5554,19.656 43.0133,36.8042 72.2019,51.6477 51.0244,26.0328 116.1522,44.6618 185.8993,59.9352 104.7155,23.0235 219.473,38.6074 315.9541,65.5717 48.2796,13.5657 92.1519,29.9018 128.5708,52.7582 18.1872,11.4521 34.5333,24.6118 48.2908,40.1479 13.7464,15.5002 24.8595,33.4844 32.0674,53.7972 5.2664,14.7956 -1.6737,31.3468 -15.487,36.9833 -13.8245,5.6364 -29.2891,-1.7912 -34.5556,-16.575 -3.9386,-11.0222 -9.6402,-21.0293 -17.3391,-30.5708 -14.36,-17.8527 -36.1734,-33.9382 -64.3356,-47.8502 -49.2057,-24.4565 -116.8774,-41.7719 -190.8422,-56.675 -55.5098,-11.2372 -114.6236,-21.304 -172.8224,-33.0068 -87.3207,-17.6258 -172.4878,-38.5835 -241.7105,-74.4563 -34.589,-17.996 -65.3622,-39.8851 -89.7865,-67.8047 -24.4243,-27.836 -42.1874,-62.0609 -49.7635,-101.9579 -2.968,-15.5122 6.371,-30.6542 20.865,-33.8307 14.4827,-3.1766 28.6308,6.8186 31.6099,22.3189"
         style="fill:#192e4d;fill-opacity:1;fill-rule:nonzero;stroke:none;stroke-width:1.1543"
         id="path196" />
      <path
         d="m 2116.0805,2984.4904 c 3.894,21.5665 14.6724,40.6136 33.6741,59.3738 16.5581,16.2885 39.3087,31.6215 66.8572,45.5455 48.2015,24.4446 110.7742,44.4828 178.9703,61.9772 102.3837,26.3315 217.3643,47.1816 318.699,72.6531 50.7008,12.7656 98.0321,26.6777 139.1483,43.42 41.1053,16.8257 76.1964,36.1831 102.3836,62.1801 10.8119,10.8072 11.3921,28.9347 1.3055,40.5061 -10.0978,11.5715 -27.0352,12.2045 -37.8471,1.3972 -15.5205,-15.5958 -39.8779,-30.8452 -70.7402,-44.5065 -54.0258,-24.0625 -127.2988,-43.5155 -206.7532,-61.5473 -119.3322,-27.1793 -252.5111,-51.3731 -361.3104,-88.5116 -54.4609,-18.6648 -102.9749,-40.4465 -141.3464,-69.0587 -19.169,-14.3419 -35.8387,-30.511 -48.9602,-49.2235 -13.1104,-18.6648 -22.5498,-40.0643 -26.6893,-63.4818 -2.7672,-15.5481 6.7727,-30.5588 21.3001,-33.5203 14.5274,-2.9615 28.5415,7.2486 31.3087,22.7967"
         style="fill:#192e4d;fill-opacity:1;fill-rule:nonzero;stroke:none;stroke-width:1.1543"
         id="path198" />
      <path
         d="m 2090.6743,873.67039 c 611.5118,0 1107.2397,-23.45344 1107.2397,-52.37613 0,-20.79044 -256.0371,-38.75066 -627.0547,-47.20538 -201.4867,-4.58559 -201.7768,-19.83502 -211.6402,-75.61455 -24.6029,-139.07139 -126.1273,-245.51935 -251.719,-245.51935 -125.4577,0 -229.6265,105.68369 -251.652,245.05362 -6.6499,42.14208 7.3977,71.00512 -191.0653,74.92193 -400.0948,7.89351 -681.33704,26.57019 -681.33704,48.36373 0,28.92269 495.72784,52.37613 1107.22854,52.37613"
         style="fill:#d8d4ee;fill-opacity:1;fill-rule:evenodd;stroke:none;stroke-width:1.1543"
         id="path200" />
      <path
         d="m 1899.62,762.9593 c 7.6208,-149.24449 91.5605,-232.55191 227.1942,-222.73706 125.8372,9.09119 210.3125,130.58321 179.506,278.51659 -18.388,88.30855 -136.4258,253.06767 -135.7452,372.44847 5.4672,950.9979 299.3513,2065.5609 1089.0414,2946.5092 C 2435.1922,3405.3622 2066.2611,2311.936 2045.5746,1179.5919 2043.6109,1071.3885 1892.5014,902.1513 1899.62,762.9593"
         style="fill:#e83b7d;fill-opacity:1;fill-rule:evenodd;stroke:none;stroke-width:1.1543"
         id="path202" />
      <path
         d="M 2932.2255,3762.5134 C 2350.583,3057.012 2086.6463,2128.8704 2069.3183,1179.0903 c -0.848,-45.9396 -4.9763,-138.8337 -37.9698,-195.16247 -22.8287,-38.97765 -107.0029,-131.52548 -108.0294,-219.58331 -1.4171,-121.36307 76.676,-207.83385 201.8884,-198.77969 101.5914,7.34293 162.1668,91.40025 163.5169,190.71907 1.1158,82.63625 -95.5885,176.3544 -110.8077,212.17948 -28.5639,67.26732 -31.5095,145.75982 -31.0743,222.89102 2.9456,511.9032 88.057,1026.9948 251.8751,1508.0526 130.1217,382.1213 308.802,739.4038 533.508,1063.1064"
         style="fill:#ba285f;fill-opacity:1;fill-rule:evenodd;stroke:none;stroke-width:1.1543"
         id="path204" />
      <path
         d="m 2957.6987,3327.407 c -11.9612,-11.9178 -30.695,-11.2012 -41.8416,1.6003 -11.1243,12.8134 -10.4548,32.8634 1.5175,44.7812 98.7795,98.6739 -49.0941,582.5022 141.4021,754.9876 -148.465,-155.7551 21.8915,-684.0303 -101.078,-801.3691"
         style="fill:#192e4d;fill-opacity:1;fill-rule:evenodd;stroke:none;stroke-width:1.1543"
         id="path206" />
      <path
         d="m 2554,2236.3095 c 6.7393,18.8797 9.908,38.3805 9.8969,57.7379 -0.022,31.9916 -8.4353,63.243 -21.9361,93.5032 -23.7325,52.9732 -63.0413,104.0716 -108.2303,155.1939 -67.8056,76.4624 -149.4357,152.7218 -213.0795,225.8645 -31.8108,36.4937 -59.0246,72.1634 -77.7027,105.612 -9.3501,16.7065 -16.5581,32.8277 -21.3447,48.0771 -4.7867,15.2615 -7.1745,29.5915 -7.1745,43.1333 0,6.4844 0.5468,12.8015 1.6514,19.059 2.767,15.548 -6.7616,30.5467 -21.289,33.5082 -14.5274,2.9735 -28.5528,-7.2367 -31.3198,-22.7846 -1.7629,-9.8878 -2.5998,-19.859 -2.5998,-29.7826 0.022,-31.717 8.4687,-62.6818 21.9696,-92.6672 23.766,-52.4956 63.0525,-103.2238 108.2302,-154.1311 67.7722,-76.14 149.38,-152.3875 212.9904,-225.8288 31.8107,-36.637 59.0133,-72.5216 77.6914,-106.2687 18.7897,-33.8188 28.6531,-64.9627 28.5862,-92.4882 -0.022,-12.8015 -2.0084,-25.0059 -6.3823,-37.3296 -5.2664,-14.7958 1.6738,-31.3469 15.487,-36.9833 13.8245,-5.6365 29.2892,1.7793 34.5556,16.575"
         style="fill:#192e4d;fill-opacity:1;fill-rule:nonzero;stroke:none;stroke-width:1.1543"
         id="path208" />
      <path
         d="m 2242.0738,1088.8234 c 94.3053,10.6996 419.0741,66.3001 -99.3486,320.3588 -229.5819,118.1747 -495.1588,254.859 -468.3356,434.4257 2.5551,17.2438 17.7185,29.0302 33.8415,26.2837 16.123,-2.7228 27.1245,-18.9515 24.5694,-36.2071 -19.8831,-133.0899 224.3155,-258.7878 435.4313,-367.433 642.006,-323.3444 158.429,-434.3422 73.842,-377.4281"
         style="fill:#192e4d;fill-opacity:1;fill-rule:evenodd;stroke:none;stroke-width:1.1543"
         id="path210" />
      <path
         d="m 2666.2916,1538.5582 c -66.2882,18.9514 -113.5859,71.041 -136.3812,146.369 -22.8064,-75.328 -70.1041,-127.4176 -136.3924,-146.369 66.2883,-18.9514 113.586,-71.0409 136.3924,-146.3689 22.7953,75.328 70.093,127.4175 136.3812,146.3689"
         style="fill:#6263b8;fill-opacity:1;fill-rule:evenodd;stroke:none;stroke-width:1.1543"
         id="path212" />
      <path
         d="m 2845.6302,1855.3227 c -45.4232,12.9806 -77.8365,48.6861 -93.4573,100.298 -15.6209,-51.6119 -48.0342,-87.3174 -93.4574,-100.298 45.4232,-12.9806 77.8365,-48.6861 93.4574,-100.298 15.6208,51.6119 48.0341,87.3174 93.4573,100.298"
         style="fill:#333b6f;fill-opacity:1;fill-rule:evenodd;stroke:none;stroke-width:1.1543"
         id="path214" />
      <path
         d="m 2743.269,3960.6016 c -66.2882,18.9515 -113.586,71.0529 -136.3924,146.369 -22.7953,-75.3161 -70.0931,-127.4175 -136.3812,-146.369 66.2881,-18.9393 113.5859,-71.0409 136.3812,-146.357 22.8064,75.3161 70.1042,127.4177 136.3924,146.357"
         style="fill:#6263b8;fill-opacity:1;fill-rule:evenodd;stroke:none;stroke-width:1.1543"
         id="path216" />
      <path
         d="m 2489.4859,3660.257 c -45.4233,12.9925 -77.8366,48.6862 -93.4574,100.3099 -15.6208,-51.6237 -48.0341,-87.3174 -93.4574,-100.3099 45.4233,-12.9806 77.8366,-48.6862 93.4574,-100.2861 15.6208,51.5999 48.0341,87.3055 93.4574,100.2861"
         style="fill:#333b6f;fill-opacity:1;fill-rule:evenodd;stroke:none;stroke-width:1.1543"
         id="path218" />
      <path
         d="m 3422.4192,3932.8851 c -45.4233,12.9925 -77.8254,48.6862 -93.4574,100.2979 -15.6321,-51.6117 -48.0341,-87.3054 -93.4574,-100.2979 45.4233,-12.9925 77.8253,-48.6862 93.4574,-100.298 15.632,51.6118 48.0341,87.3055 93.4574,100.298"
         style="fill:#333b6f;fill-opacity:1;fill-rule:evenodd;stroke:none;stroke-width:1.1543"
         id="path220" />
      <path
         d="m 2379.9836,3916.728 c -33.529,9.5773 -57.4513,35.9206 -68.9884,74.0264 -11.5259,-38.1058 -35.4481,-64.4491 -68.9772,-74.0264 33.5291,-9.5891 57.4513,-35.9324 68.9772,-74.0264 11.5371,38.094 35.4594,64.4373 68.9884,74.0264"
         style="fill:#333b6f;fill-opacity:1;fill-rule:evenodd;stroke:none;stroke-width:1.1543"
         id="path222" />
      <path
         d="m 3434.5029,4202.6233 c -33.529,9.5772 -57.4512,35.9324 -68.9772,74.0264 -11.5371,-38.094 -35.4593,-64.4492 -68.9772,-74.0264 33.5179,-9.5891 57.4401,-35.9324 68.9772,-74.0263 11.526,38.0939 35.4482,64.4372 68.9772,74.0263"
         style="fill:#6263b8;fill-opacity:1;fill-rule:evenodd;stroke:none;stroke-width:1.1543"
         id="path224" />
      <path
         d="m 2577.2527,1862.5832 c -33.5179,9.5892 -57.4401,35.9325 -68.9772,74.0264 -11.5371,-38.0939 -35.4482,-64.4372 -68.9772,-74.0264 33.529,-9.5891 57.4401,-35.9324 68.9772,-74.0263 11.5371,38.0939 35.4593,64.4372 68.9772,74.0263"
         style="fill:#333b6f;fill-opacity:1;fill-rule:evenodd;stroke:none;stroke-width:1.1543"
         id="path226" />
      <path
         d="m 2000.5866,2649.4909 c -33.5291,9.5892 -57.4514,35.9444 -68.9885,74.0383 -11.5259,-38.0939 -35.4482,-64.4491 -68.9772,-74.0383 33.529,-9.5772 57.4513,-35.9205 68.9772,-74.0144 11.5371,38.0939 35.4594,64.4372 68.9885,74.0144"
         style="fill:#333b6f;fill-opacity:1;fill-rule:evenodd;stroke:none;stroke-width:1.1543"
         id="path228" />
      <path
         d="m 1927.9385,1294.1124 c -33.5292,9.5773 -57.4514,35.9325 -68.9774,74.0263 -11.5371,-38.0938 -35.4593,-64.449 -68.9772,-74.0263 33.5179,-9.5891 57.4401,-35.9324 68.9772,-74.0264 11.526,38.094 35.4482,64.4373 68.9774,74.0264"
         style="fill:#6263b8;fill-opacity:1;fill-rule:evenodd;stroke:none;stroke-width:1.1543"
         id="path230" />
      <path
         d="m 3437.6272,539.53201 c 211.417,0 383.8489,18.46301 383.8489,41.07693 0,22.62825 -172.4319,41.0817 -383.8489,41.0817 -211.4283,0 -383.8715,-18.45345 -383.8715,-41.0817 0,-22.61392 172.4432,-41.07693 383.8715,-41.07693"
         style="fill:#6e70af;fill-opacity:1;fill-rule:evenodd;stroke:none;stroke-width:1.1543"
         id="path232" />
      <path
         d="m 3649.8364,2921.7488 c 59.5601,-92.1776 -30.907,-171.2433 -111.7448,-108.9318 -46.3605,-52.1492 -169.0177,-10.8908 -194.9037,23.1788 -74.5784,-0.2867 -65.2282,84.8693 -26.1203,125.2322 -29.9362,8.7652 -38.7397,70.1691 9.8299,109.0751 -48.2795,28.1226 42.288,214.4483 120.1245,201.1334 117.837,49.8923 308.947,-171.53 228.9347,-244.8877 33.9754,-44.3991 32.3687,-106.5792 -26.1203,-104.8"
         style="fill:#f18045;fill-opacity:1;fill-rule:evenodd;stroke:none;stroke-width:1.1543"
         id="path234" />
      <path
         d="m 3474.3027,2687.8953 c -35.9503,0 -73.9983,13.6613 -87.2425,28.4331 -2.8006,-0.3702 -5.4785,-0.5374 -8.0113,-0.5374 -49.6631,0 -48.8151,66.4792 -23.4759,101.9101 -8.2902,1.5286 -15.1857,8.5025 -19.2582,18.5216 2.0864,-0.1553 4.2511,-0.2269 6.4938,-0.2269 0.1227,0 0.2565,0 0.3793,0 10.2539,-13.5061 35.7048,-28.1346 65.5742,-37.6282 1.4951,-26.6061 6.9736,-50.7162 25.6851,-68.0914 24.759,9.6489 49.7078,33.8188 66.0539,61.1414 14.8175,3.6541 27.8832,10.4728 37.5905,21.3994 20.0839,-15.4764 40.748,-22.2354 59.5712,-22.2354 11.2359,0.012 21.8246,2.4123 31.2194,6.8188 23.5875,-49.2236 -5.1996,-94.6855 -47.9895,-94.6855 -12.7199,0 -26.6782,4.0124 -40.8597,13.1478 -13.3224,-20.3725 -38.9405,-27.9674 -65.7303,-27.9674"
         style="fill:#cea68d;fill-opacity:1;fill-rule:nonzero;stroke:none;stroke-width:1.1543"
         id="path236" />
      <path
         d="m 3597.6628,2790.5816 c -18.8232,0 -39.4873,6.759 -59.5712,22.2354 -9.7073,-10.9266 -22.773,-17.7453 -37.5905,-21.3994 11.4367,19.1066 18.6557,39.7657 18.6557,58.0842 v 61.4637 c 36.1847,21.8413 66.3552,61.4518 85.1672,106.4718 31.1524,-38.8343 45.7914,-82.9825 23.1858,-110.9977 30.3045,-33.5561 34.656,-85.3112 -10.7784,-89.4549 5.0209,-6.5202 9.0378,-13.0881 12.1508,-19.5843 -9.3948,-4.4065 -19.9835,-6.8068 -31.2194,-6.8188 m -188.9007,7.786 c -29.8694,9.4936 -55.3203,24.1221 -65.5742,37.6282 -0.1228,0 -0.2566,0 -0.3793,0 -2.2427,0 -4.4074,0.071 -6.4938,0.2269 -7.6989,18.9394 -5.2666,48.7458 17.0379,72.9157 -20.8762,9.7683 -16.2346,59.0993 1.7182,103.4268 7.208,-44.6618 24.9488,-83.4245 53.3341,-103.9402 v -61.0577 c 0,-16.6945 -0.5245,-33.3889 0.3571,-49.1997"
         style="fill:#ca7241;fill-opacity:1;fill-rule:nonzero;stroke:none;stroke-width:1.1543"
         id="path238" />
      <path
         d="m 3358.6637,2838.1692 c -82.8909,10.6758 -299.6303,14.9151 -380.7918,4.0482 -92.0626,-12.3477 -80.4028,-67.8764 -14.36,-98.9964 66.277,-31.2274 282.0122,-64.9148 355.553,-73.1905 183.4445,-20.659 157.9379,152.9011 39.5988,168.1387"
         style="fill:#192e4d;fill-opacity:1;fill-rule:evenodd;stroke:none;stroke-width:1.1543"
         id="path240" />
      <path
         d="m 3349.7598,2822.3225 c -31.2082,-34.2963 -61.747,-78.5164 -84.1294,-128.5519 5.4338,-0.4897 22.9292,-2.1376 27.5596,-2.663 51.3034,-5.7797 77.6468,12.7775 100.0181,30.5706 -13.4339,46.1665 -28.72,87.0548 -43.4483,100.6443"
         style="fill:#142339;fill-opacity:1;fill-rule:evenodd;stroke:none;stroke-width:1.1543"
         id="path242" />
      <path
         d="m 2643.0835,3020.7452 c -23.2082,16.2287 -26.8455,18.9992 -22.8176,30.7737 6.6946,19.5365 22.4828,11.7506 38.2153,6.1021 -19.8162,15.7989 -55.9561,38.1298 -52.2406,46.9547 10.5106,24.8983 91.7948,-36.0997 103.2315,-43.1692 -12.7979,29.9498 -21.3559,57.1648 -12.0503,66.0016 15.4646,14.7122 60.129,-95.2944 46.0368,-133.6988 -23.6544,-64.4491 -137.6754,-5.0633 -131.3379,15.9421 4.2846,14.2344 12.2177,13.2313 30.9628,11.0938"
         style="fill:#f6b4ad;fill-opacity:1;fill-rule:evenodd;stroke:none;stroke-width:1.1543"
         id="path244" />
      <path
         d="m 2697.8904,2938.2283 c 60.4862,-51.0625 204.5997,-181.7998 275.563,-194.1117 81.0053,-14.0434 115.6055,50.1311 50.8236,103.8328 -52.7538,43.7423 -211.0043,153.4503 -259.9868,177.1426 -22.9181,-7.4755 -56.3802,-45.7008 -66.3998,-86.8637"
         style="fill:#192e4d;fill-opacity:1;fill-rule:evenodd;stroke:none;stroke-width:1.1543"
         id="path246" />
      <path
         d="m 3420.8794,689.70912 c 9.0266,-53.08182 12.2511,-94.77975 4.4295,-123.1173 H 3128.457 l -0.5802,21.61083 c -1.1047,40.41062 33.3727,70.01757 92.5759,77.72826 l 200.4267,23.77821"
         style="fill:#ffffff;fill-opacity:1;fill-rule:evenodd;stroke:none;stroke-width:1.1543"
         id="path248" />
      <path
         d="m 3270.4394,1992.8787 c -31.7104,-180.3669 -33.4956,-424.4066 -24.4244,-668.0404 0.4129,-121.172 147.8737,-101.8862 150.0718,12.5985 4.5636,237.6748 113.2178,337.937 80.4921,718.1237 -65.8642,96.9662 -159.6006,29.6034 -206.1395,-62.6818"
         style="fill:#192e4d;fill-opacity:1;fill-rule:evenodd;stroke:none;stroke-width:1.1543"
         id="path250" />
      <path
         d="m 3462.4866,1966.3921 c -7.2413,-184.9405 29.8024,-409.0496 70.941,-651.0116 16.4465,-120.9452 158.931,-94.0645 145.7761,20.5993 -44.8877,391.1969 100.5425,563.4435 10.1982,723.6528 -78.9634,37.5565 -175.8574,-37.2938 -226.9153,-93.2405"
         style="fill:#192e4d;fill-opacity:1;fill-rule:evenodd;stroke:none;stroke-width:1.1543"
         id="path252" />
      <path
         d="m 3535.9382,1301.7431 c 33.3282,-173.7511 6.5606,-379.51792 33.462,-655.10512 32.9824,-14.55814 134.0604,-13.79378 173.3581,3.89056 -5.3334,191.93828 -33.1051,446.43906 -62.9744,676.78166 -5.0433,132.0271 -172.3316,122.8917 -143.8457,-25.5671"
         style="fill:#192e4d;fill-opacity:1;fill-rule:evenodd;stroke:none;stroke-width:1.1543"
         id="path254" />
      <path
         d="m 3247.856,1301.7431 c 23.6657,-180.4384 -11.8829,-381.85845 24.9934,-629.20612 42.7566,5.27831 98.4226,-70.33513 174.418,-30.89538 -3.961,230.93021 -31.8442,559.5169 -55.5656,685.6686 -24.5805,130.6896 -163.4722,124.0261 -143.8458,-25.5671"
         style="fill:#192e4d;fill-opacity:1;fill-rule:evenodd;stroke:none;stroke-width:1.1543"
         id="path256" />
      <path
         d="m 3741.7317,587.71304 1.2162,-21.11166 h -173.5811 l -1.2163,21.11166 h -0.2789 c -2.6109,45.07974 35.2027,78.47101 83.2145,78.47101 48.0118,0 88.0347,-33.39127 90.6456,-78.47101"
         style="fill:#ffffff;fill-opacity:1;fill-rule:evenodd;stroke:none;stroke-width:1.1543"
         id="path258" />
      <path
         d="m 3231.6438,1859.8486 c 4.6528,113.5413 61.4458,377.2849 66.8908,457.3895 6.4603,95.0914 -7.9332,158.1792 -6.929,246.1892 0.8815,78.1583 -4.6974,186.3736 29.2668,278.5035 98.099,-1.3375 355.553,16.3481 414.1647,-68.7721 68.966,-100.1188 -67.1251,-273.5595 -48.7482,-446.1524 8.1786,-76.8445 73.1948,-290.23 68.185,-481.225 -111.1759,-48.4951 -222.8873,-45.3305 -314.9164,-34.798 -11.8942,42.3451 -24.3797,100.8831 -26.1538,137.6157 -4.1954,-19.9426 -9.6292,-74.1935 -27.1915,-129.3401 -59.8836,11.8222 -136.1469,27.4897 -154.5684,40.5897"
         style="fill:#192e4d;fill-opacity:1;fill-rule:evenodd;stroke:none;stroke-width:1.1543"
         id="path260" />
      <g
         id="g262"
         transform="matrix(1.1157754,0,0,1.1941661,-455.09001,-528.22083)">
        <g
           id="g264"
           clip-path="url(#clipPath268)">
          <path
             d="m 3479.37,2791.21 c -1.66,-6.3 -2.84,-13.98 -3.83,-23.32 -3.67,-34.85 -4.38,-93.13 -4.82,-164.37 -0.63,-106.74 -0.5,-242.04 -7.89,-366.02 -3.69,-61.98 -9.27,-121.12 -17.7,-172.27 -8.38,-51.12 -19.77,-94.32 -34.32,-123.8 l 21.53,-10.6 c 11.61,23.63 20.74,53.13 28.21,87.07 13.03,59.36 20.87,132.36 25.73,209.85 7.26,116.21 7.76,242.47 8.28,346.53 0.27,52.02 0.53,98.5 1.65,135.24 0.55,18.36 1.32,34.3 2.38,47.18 1.05,12.85 2.47,22.78 3.98,28.37 l -23.2,6.14"
             style="fill:#142339;fill-opacity:1;fill-rule:nonzero;stroke:none"
             id="path270" />
          <path
             d="m 3458.34,2174.96 c -0.71,-11.71 -1.05,-23.13 -1.05,-34.27 -0.01,-81.38 17.87,-147.76 36.86,-206.63 l 22.84,7.37 c -18.72,58.07 -35.69,121.42 -35.7,199.26 0,10.66 0.32,21.59 1,32.82 l -23.95,1.45"
             style="fill:#142339;fill-opacity:1;fill-rule:nonzero;stroke:none"
             id="path272" />
          <path
             d="m 3437.41,2846.86 c -1.99,-22.57 -2.94,-43.06 -2.94,-61.79 0,-37.14 3.73,-67.38 10.54,-92.97 6.8,-25.58 16.74,-46.45 28.75,-64.48 l 19.98,13.29 c -10.66,16.05 -19.36,34.23 -25.54,57.37 -6.16,23.12 -9.73,51.24 -9.73,86.79 0,17.92 0.91,37.72 2.84,59.68 l -23.9,2.11"
             style="fill:#142339;fill-opacity:1;fill-rule:nonzero;stroke:none"
             id="path274" />
          <path
             d="m 3564.56,2842.16 c 0.04,-1.45 0.07,-2.92 0.07,-4.39 0.06,-33.9 -12.45,-72.24 -30.16,-107.14 -17.66,-34.91 -40.41,-66.45 -59.57,-87.21 l 17.65,-16.26 c 20.83,22.63 44.53,55.54 63.33,92.63 18.73,37.1 32.68,78.31 32.74,117.98 0,1.72 -0.02,3.44 -0.08,5.15 l -23.98,-0.76"
             style="fill:#142339;fill-opacity:1;fill-rule:nonzero;stroke:none"
             id="path276" />
          <path
             d="m 3294.37,2003.11 c 68.22,-23.68 164.54,-49.89 274.31,-49.9 70.3,-0.01 146.14,10.78 223.39,39.94 l -8.47,22.45 c -74.22,-28 -147.06,-38.39 -214.92,-38.39 -105.93,-0.01 -199.67,25.38 -266.44,48.57 l -7.87,-22.67"
             style="fill:#142339;fill-opacity:1;fill-rule:nonzero;stroke:none"
             id="path278" />
        </g>
      </g>
      <path
         d="m 3408.405,2858.5416 c 39.2865,2.5794 62.1263,-8.0725 110.0936,-18.9753 -15.6544,-92.6434 -66.7234,-167.0758 -96.4254,-189.9917 -19.4703,36.5652 -28.229,142.8579 -13.6682,208.967"
         style="fill:#f6b4ad;fill-opacity:1;fill-rule:evenodd;stroke:none;stroke-width:1.1543"
         id="path280" />
      <path
         d="m 3519.1568,3042.1566 -110.7518,-1.9345 v -192.6548 c 0,-44.7933 -3.7936,-89.5745 26.0422,-117.2911 42.0647,16.396 84.7096,74.7071 84.7096,119.2256 v 192.6548"
         style="fill:#f6b4ad;fill-opacity:1;fill-rule:evenodd;stroke:none;stroke-width:1.1543"
         id="path282" />
      <path
         d="m 3690.049,2424.7608 c -26.31,49.0682 -45.9254,178.5159 -36.3408,229.7695 9.5733,51.2536 55.6326,38.6671 100.152,30.093 -6.4715,-73.907 -48.5808,-164.8189 -63.8112,-259.8625"
         style="fill:#142339;fill-opacity:1;fill-rule:evenodd;stroke:none;stroke-width:1.1543"
         id="path284" />
      <path
         d="m 3665.6805,2600.339 c 16.4577,-79.0657 62.6396,-206.4712 99.1143,-284.8324 41.3842,-88.8818 86.4726,-58.7172 92.018,18.2946 5.5789,77.2625 -54.5614,280.8081 -78.3385,355.754 -64.9382,204.7397 -146.0216,70.4558 -112.7938,-89.2162"
         style="fill:#192e4d;fill-opacity:1;fill-rule:evenodd;stroke:none;stroke-width:1.1543"
         id="path286" />
      <path
         d="m 3408.405,2930.1916 c 36.921,0.6568 73.842,1.3017 110.763,1.9465 0,-2.7466 -0.012,-9.7205 -0.012,-21.1726 -28.2626,-35.4309 -61.39,-48.4831 -110.7518,-52.4358 0,22.9041 0,48.7577 0,71.6619"
         style="fill:#d89e99;fill-opacity:1;fill-rule:evenodd;stroke:none;stroke-width:1.1543"
         id="path288" />
      <path
         d="m 3328.6494,2335.9984 206.5969,95.0079 134.4175,-334.8203 -206.597,-95.0198 -134.4174,334.8322"
         style="fill:#ffffff;fill-opacity:1;fill-rule:evenodd;stroke:none;stroke-width:1.1543"
         id="path290" />
      <path
         d="m 3412.3549,2433.6812 v 0.012 c 5.3556,2.4481 11.5928,-0.2031 13.9025,-5.935 l 15.7659,-39.2881 c 2.2985,-5.7081 -0.1897,-12.4074 -5.5342,-14.8674 -5.3446,-2.4599 -11.6041,0.215 -13.9026,5.9231 l -15.7659,39.3001 c -2.2985,5.7199 0.1897,12.4073 5.5343,14.8553"
         style="fill:#e83b7d;fill-opacity:1;fill-rule:evenodd;stroke:none;stroke-width:1.1543"
         id="path292" />
      <path
         d="m 3387.4061,2385.9384 74.4891,34.2607 15.5428,-38.7149 -74.4891,-34.2486 -15.5428,38.7028"
         style="fill:#e83b7d;fill-opacity:1;fill-rule:evenodd;stroke:none;stroke-width:1.1543"
         id="path294" />
      <path
         d="m 3507.8428,3261.8473 c -76.0958,12.9209 -119.4213,-39.1925 -141.4579,-105.6359 -35.292,-106.436 -8.4911,-254.0111 82.0652,-262.7285 74.2772,-7.141 139.6505,66.4673 165.291,150.0112 28.6532,93.336 7.6766,199.0674 -105.8983,218.3532"
         style="fill:#f6b4ad;fill-opacity:1;fill-rule:evenodd;stroke:none;stroke-width:1.1543"
         id="path296" />
      <path
         d="m 3395.9976,3101.041 c 5.6458,-0.7046 9.6626,-6.3173 8.9931,-12.5388 -0.6694,-6.2216 -5.7909,-10.6998 -11.4366,-9.9952 -5.6348,0.6926 -9.6627,6.3171 -8.9932,12.5388 0.6806,6.2216 5.802,10.6996 11.4367,9.9952"
         style="fill:#192c3f;fill-opacity:1;fill-rule:evenodd;stroke:none;stroke-width:1.1543"
         id="path298" />
      <path
         d="m 3495.19,3087.726 c 5.6458,-0.7046 9.6626,-6.3171 8.9932,-12.5388 -0.6807,-6.2216 -5.8021,-10.6997 -11.4367,-9.9952 -5.6348,0.6927 -9.6627,6.3053 -8.9932,12.5388 0.6806,6.2216 5.7909,10.6878 11.4367,9.9952"
         style="fill:#192c3f;fill-opacity:1;fill-rule:evenodd;stroke:none;stroke-width:1.1543"
         id="path300" />
      <path
         d="m 3439.7248,3012.0278 c -24.7367,6.6515 -22.3155,36.0877 -12.5524,57.3677 -18.2542,-15.2256 -24.6699,-57.3796 12.5524,-57.3677"
         style="fill:#d28f88;fill-opacity:1;fill-rule:evenodd;stroke:none;stroke-width:1.1543"
         id="path302" />
      <path
         d="m 3486.0741,3105.6862 c -6.8732,-2.6868 -12.3517,7.38 -3.6374,11.1297 12.5636,5.3857 41.4287,2.9376 51.4149,-6.4485 5.2107,-4.8842 -2.265,-10.7594 -7.4757,-5.8634 -6.5385,6.1381 -31.9335,4.4662 -40.3018,1.1822"
         style="fill:#a4623b;fill-opacity:1;fill-rule:evenodd;stroke:none;stroke-width:1.1543"
         id="path304" />
      <path
         d="m 3420.1876,3117.2338 c 6.1256,-4.287 13.5901,4.2035 5.8801,9.9594 -11.1019,8.2875 -39.7328,12.8611 -51.4373,6.1261 -6.1144,-3.5109 -0.067,-11.0341 6.0476,-7.5233 7.6542,4.4065 32.0451,-3.3556 39.5096,-8.5622"
         style="fill:#a4623b;fill-opacity:1;fill-rule:evenodd;stroke:none;stroke-width:1.1543"
         id="path306" />
      <path
         d="m 3390.3629,2995.3931 c 28.6085,-10.7714 69.6356,-16.0735 100.2747,-12.4672 -12.4297,-11.9536 -86.3163,-7.3322 -100.2747,12.4672"
         style="fill:#d28f88;fill-opacity:1;fill-rule:evenodd;stroke:none;stroke-width:1.1543"
         id="path308" />
      <path
         d="m 3408.1037,2976.7641 c 18.5889,-10.9625 45.3006,-13.9956 65.2505,-8.1084 -8.3571,-16.9452 -56.447,-15.0346 -65.2505,8.1084"
         style="fill:#d28f88;fill-opacity:1;fill-rule:evenodd;stroke:none;stroke-width:1.1543"
         id="path310" />
      <path
         d="m 3402.7926,2160.2888 c -32.3352,-2.8182 -34.2543,22.9758 -20.8315,38.7149 9.6403,-15.9421 40.6477,7.8337 53.4903,18.832 -31.8108,-12.5507 -64.5588,6.3291 -15.1188,16.3243 41.161,8.3233 98.1771,-5.0991 108.8774,-32.8874 15.5539,-40.4225 -55.4987,-74.5398 -98.2999,-92.1657 -35.5486,-14.6405 -43.3255,9.7683 -16.2121,26.6179 -31.822,-18.2229 -54.528,11.1894 -11.9054,24.564"
         style="fill:#f6b4ad;fill-opacity:1;fill-rule:evenodd;stroke:none;stroke-width:1.1543"
         id="path312" />
      <path
         d="m 3635.0747,3071.2943 c -8.4241,3.463 -20.8649,-9.3862 -27.7939,-28.7078 -6.9289,-19.3097 -5.7239,-37.7834 2.7002,-41.2465 8.4241,-3.4512 20.8649,9.3981 27.8051,28.7197 6.929,19.3096 5.7128,37.7834 -2.7114,41.2346"
         style="fill:#f6b4ad;fill-opacity:1;fill-rule:evenodd;stroke:none;stroke-width:1.1543"
         id="path314" />
      <path
         d="m 3511.5026,3068.6432 107.5608,-5.2663 c 1.4728,-0.071 2.7336,1.1584 2.8006,2.7346 0.067,1.5763 -1.0824,2.9257 -2.5552,2.9975 l -107.5607,5.2662 c -1.4728,0.071 -2.7225,-1.1584 -2.7894,-2.7346 -0.067,-1.5883 1.0711,-2.9257 2.5439,-2.9974"
         style="fill:#589fdc;fill-opacity:1;fill-rule:nonzero;stroke:none;stroke-width:1.1543"
         id="path316" />
      <path
         d="m 3671.1701,3027.0982 c -78.4725,-41.0197 -140.956,122.2707 -261.1696,185.5017 -33.741,-21.3039 -52.4637,-67.9838 -61.6354,-128.4086 -15.8441,108.7645 18.533,202.4589 144.6826,187.3765 152.0021,-18.1752 213.6375,-157.7374 178.1224,-244.4696"
         style="fill:#f18045;fill-opacity:1;fill-rule:evenodd;stroke:none;stroke-width:1.1543"
         id="path318" />
      <path
         d="m 3679.2706,3068.8103 c -56.302,-30.2481 -177.4194,137.9979 -251.6631,176.5934 80.7151,-10.0788 205.5035,-173.9542 251.6631,-176.5934"
         style="fill:#f89a64;fill-opacity:1;fill-rule:evenodd;stroke:none;stroke-width:1.1543"
         id="path320" />
      <path
         d="m 3673.5578,3117.9981 c -74.6119,136.9709 -193.2523,163.5411 -235.7298,148.7214 34.9237,-6.6395 147.0257,-40.4225 235.7298,-148.7214"
         style="fill:#f89a64;fill-opacity:1;fill-rule:evenodd;stroke:none;stroke-width:1.1543"
         id="path322" />
      <path
         d="m 3325.1682,3079.5579 c -12.5748,97.1812 67.3927,185.8242 103.2426,179.1965 -25.4173,-8.0486 -102.6624,-97.3484 -103.2426,-179.1965"
         style="fill:#f89a64;fill-opacity:1;fill-rule:evenodd;stroke:none;stroke-width:1.1543"
         id="path324" />
      <path
         d="m 3517.5279,2126.0641 c 74.5226,20.8859 268.0427,88.5832 317.9624,143.9447 42.2991,46.8949 18.6111,118.103 -60.475,95.1392 -64.4025,-18.6887 -238.6755,-97.8141 -285.8616,-125.3635 -8.2344,-24.0864 3.7266,-80.3555 28.3742,-113.7204"
         style="fill:#192e4d;fill-opacity:1;fill-rule:evenodd;stroke:none;stroke-width:1.1543"
         id="path326" />
      <path
         d="m 3496.7855,2625.2016 115.1146,-10.4609 -6.148,-77.6089 -115.1256,10.4609 6.159,77.6089"
         style="fill:#ffffff;fill-opacity:1;fill-rule:evenodd;stroke:none;stroke-width:1.1543"
         id="path328" />
      <path
         d="m 3547.1852,2643.8903 17.9862,-1.6361 -3.6597,-46.2023 -17.9863,1.6361 3.6598,46.2023"
         style="fill:#e83b7d;fill-opacity:1;fill-rule:evenodd;stroke:none;stroke-width:1.1543"
         id="path330" />
      <path
         d="m 3576.954,2600.7689 11.8719,-1.0747 -3.4924,-44.1125 -11.883,1.0867 3.5035,44.1005"
         style="fill:#e83b7d;fill-opacity:1;fill-rule:evenodd;stroke:none;stroke-width:1.1543"
         id="path332" />
      <path
         d="m 3602.2486,2582.6653 -1.0041,-12.7178 -41.2168,3.7497 1.0042,12.706 41.2167,-3.7379"
         style="fill:#e83b7d;fill-opacity:1;fill-rule:evenodd;stroke:none;stroke-width:1.1543"
         id="path334" />
      <path
         d="m 3507.1399,2607.11 30.8177,-2.7944 -0.2901,-3.6421 -30.8177,2.8062 0.2901,3.6303"
         style="fill:#142339;fill-opacity:1;fill-rule:evenodd;stroke:none;stroke-width:1.1543"
         id="path336" />
      <path
         d="m 3506.3366,2596.9954 45.8472,-4.1677 -0.2901,-3.6302 -45.8472,4.1556 0.2901,3.6423"
         style="fill:#142339;fill-opacity:1;fill-rule:evenodd;stroke:none;stroke-width:1.1543"
         id="path338" />
      <path
         d="m 3505.5333,2586.8688 45.8471,-4.1557 -0.2901,-3.6421 -45.836,4.1676 0.279,3.6302"
         style="fill:#142339;fill-opacity:1;fill-rule:evenodd;stroke:none;stroke-width:1.1543"
         id="path340" />
      <path
         d="m 3504.7298,2576.7543 45.8585,-4.1558 -0.2901,-3.6421 -45.8585,4.1556 0.2901,3.6423"
         style="fill:#142339;fill-opacity:1;fill-rule:evenodd;stroke:none;stroke-width:1.1543"
         id="path342" />
      <path
         d="m 3503.9265,2566.6397 45.8584,-4.1677 -0.2901,-3.6303 -45.8473,4.1557 0.279,3.6423"
         style="fill:#142339;fill-opacity:1;fill-rule:evenodd;stroke:none;stroke-width:1.1543"
         id="path344" />
      <path
         d="m 2665.3209,3031.23 c -11.3586,-20.7308 -51.0913,3.9766 -41.0606,20.671 10.0309,16.6944 50.143,-4.096 41.0606,-20.671"
         style="fill:#d89e99;fill-opacity:1;fill-rule:evenodd;stroke:none;stroke-width:1.1543"
         id="path346" />
      <path
         d="m 2661.2818,2992.9331 c -10.3544,-21.3159 -51.2029,1.1942 -41.9867,18.414 9.2275,17.2079 50.2769,-1.3733 41.9867,-18.414"
         style="fill:#d89e99;fill-opacity:1;fill-rule:evenodd;stroke:none;stroke-width:1.1543"
         id="path348" />
      <path
         d="m 2660.1549,3035.6962 c -11.3586,-20.7188 -51.0915,3.9766 -41.0606,20.671 10.0309,16.6944 50.143,-4.096 41.0606,-20.671"
         style="fill:#f6b4ad;fill-opacity:1;fill-rule:evenodd;stroke:none;stroke-width:1.1543"
         id="path350" />
      <path
         d="m 2656.1157,2997.3993 c -10.3655,-21.3159 -51.214,1.1941 -41.9866,18.4141 9.2275,17.2198 50.2769,-1.3614 41.9866,-18.4141"
         style="fill:#f6b4ad;fill-opacity:1;fill-rule:evenodd;stroke:none;stroke-width:1.1543"
         id="path352" />
      <path
         d="m 3389.7716,3083.1882 c -18.5331,6.5678 -34.6003,6.8665 -39.4985,2.3286 -4.8983,-4.5259 1.986,-35.0966 30.3045,-41.6167 27.7604,-6.3888 36.1622,15.4167 35.8163,19.0708 -0.3235,3.3198 -1.8186,11.4163 -26.6223,20.2173 m 79.7221,-9.0877 c -25.9083,-3.0211 -28.8651,-10.6042 -29.8024,-13.7806 -1.0265,-3.5108 3.18,-26.7374 31.543,-26.7494 28.9209,0 41.306,28.3734 37.345,33.9024 -3.961,5.5529 -19.7381,8.8847 -39.0856,6.6276 m -128.3365,21.5189 c 4.4184,2.6152 21.4452,2.5317 38.4384,-1.9464 16.7367,-4.4065 29.3784,-13.1001 34.723,-17.1244 9.2163,-6.9262 19.6153,-8.1084 29.9139,-3.4034 5.9694,2.7346 19.9613,8.3831 37.1553,8.9323 17.4508,0.5494 34.1428,-3.2003 37.9811,-6.7708 3.113,-2.8779 3.6039,-7.177 0.569,-9.0279 -3.0238,-1.839 -3.9834,-2.7825 -10.0866,-13.2792 -6.2483,-10.7475 -22.6056,-24.2415 -44.6422,-21.7338 -21.2332,2.4122 -29.1441,21.8414 -30.8623,24.9581 -4.3962,8.0487 -7.6878,8.4188 -13.4786,1.5405 -2.2539,-2.663 -13.5902,-19.9068 -34.8234,-17.4826 -22.0365,2.5197 -35.5597,19.4171 -39.6881,31.3349 -4.0502,11.667 -4.7867,12.8015 -7.4199,15.2973 -2.6332,2.4839 -1.3501,6.5798 2.2204,8.7054"
         style="fill:#589fdc;fill-opacity:1;fill-rule:evenodd;stroke:none;stroke-width:1.1543"
         id="path354" />
      <path
         d="m 3351.5004,3068.6313 c -1.4393,3.4392 -2.265,6.747 -2.5551,9.5294 -0.3682,3.5347 0.1227,6.2335 1.3278,7.3561 0.044,0.036 0.078,0.071 0.1227,0.1194 0.022,0.012 0.034,0.024 0.056,0.036 0.558,0.4777 1.2497,0.9077 2.0531,1.2658 -0.5021,-6.0902 -0.8481,-12.2163 -1.0042,-18.3065"
         style="fill:#f4aa7f;fill-opacity:1;fill-rule:nonzero;stroke:none;stroke-width:1.1543"
         id="path356" />
      <path
         d="m 3390.2067,3042.7417 c -2.9122,0 -6.1145,0.3583 -9.6291,1.1584 -4.2958,0.9912 -8.0894,2.5317 -11.4367,4.4542 -0.012,0.012 -0.034,0.012 -0.044,0.024 0,0 -0.011,0 -0.011,0.012 -8.9485,5.1468 -14.5943,13.0283 -17.5846,20.2411 0.1561,6.0902 0.5021,12.2163 1.0042,18.3065 2.3877,1.0748 5.802,1.6361 9.9638,1.6361 0.012,0 0.022,0 0.034,0 0.1673,0 0.3347,0 0.5132,0 6.2372,-0.071 14.0699,-1.3494 22.5833,-4.0004 1.5063,-3.2482 4.4185,-5.6247 7.9555,-6.0664 0.4016,-0.048 0.7921,-0.072 1.1715,-0.072 1.5175,0 2.9792,0.3702 4.307,1.039 15.9443,-7.2964 17.0824,-13.6493 17.3614,-16.5034 0,-0.012 0,-0.024 0.012,-0.036 0,-0.059 0,-0.1314 0,-0.203 0,-0.9434 -0.4239,-2.6988 -1.3612,-4.7766 -2.7895,-6.1381 -10.1536,-15.2138 -24.8371,-15.2138"
         style="fill:#fad0cb;fill-opacity:1;fill-rule:nonzero;stroke:none;stroke-width:1.1543"
         id="path358" />
      <path
         d="m 3394.7256,3078.4354 c -0.3794,0 -0.7699,0.024 -1.1715,0.071 -3.5371,0.4418 -6.4493,2.8182 -7.9556,6.0664 0.9931,-0.3105 1.9973,-0.633 3.0014,-0.9793 0.2232,-0.083 0.4464,-0.1552 0.6695,-0.2268 0.011,-0.012 0.011,-0.012 0.022,-0.012 0.1561,-0.059 0.3124,-0.1077 0.4797,-0.1671 3.537,-1.254 6.6054,-2.4959 9.261,-3.7139 -1.3278,-0.6688 -2.7895,-1.0389 -4.3069,-1.0389"
         style="fill:#677785;fill-opacity:1;fill-rule:nonzero;stroke:none;stroke-width:1.1543"
         id="path360" />
      <path
         d="m 3390.2067,3042.7417 v 0 c 14.6836,0 22.0477,9.0757 24.8371,15.2137 -2.7894,-6.138 -10.1535,-15.2137 -24.8371,-15.2137 m -21.0658,5.6126 c -0.012,0.012 -0.034,0.012 -0.044,0.024 0.012,-0.012 0.034,-0.012 0.044,-0.024 m -0.056,0.036 c -13.222,7.6187 -19.236,21.1606 -20.1398,29.7706 0.2901,-2.7825 1.1157,-6.0903 2.5551,-9.5295 2.9903,-7.2128 8.6361,-15.0943 17.5847,-20.2411 m 47.3199,14.3419 c 0,0.071 0,0.1433 0,0.2031 0,-0.059 0,-0.1314 0,-0.2031 m -27.1133,20.6232 c -0.012,0 -0.012,0 -0.022,0.012 0.011,-0.012 0.011,-0.012 0.022,-0.012 m -0.6918,0.2389 c -1.0041,0.3463 -2.0083,0.6688 -3.0014,0.9793 -8.5134,2.651 -16.346,3.9288 -22.5833,4.0004 6.9513,-0.084 15.8998,-1.6719 25.5847,-4.9797 m -38.2041,2.042 c 0.022,0.012 0.034,0.024 0.056,0.036 -0.022,-0.012 -0.034,-0.024 -0.056,-0.036 m 12.0726,2.9377 c 0.012,0 0.022,0 0.034,0 v 0 c -0.012,0 -0.022,0 -0.034,0"
         style="fill:#82c6ee;fill-opacity:1;fill-rule:nonzero;stroke:none;stroke-width:1.1543"
         id="path362" />
      <path
         d="m 3471.2343,3033.5705 c -25.9753,0.012 -31.6881,19.5007 -31.6768,25.4716 0,0.5493 0.044,0.9792 0.1338,1.2778 0.9373,3.1764 3.8941,10.7595 29.8024,13.7806 4.1842,0.4777 8.1898,0.7046 11.9499,0.7046 0.7922,0 1.5733,0 2.3432,-0.024 0.636,-4.9678 4.2288,-9.004 8.9597,-9.5892 0.3905,-0.048 0.781,-0.071 1.1604,-0.071 3.9386,0 7.4757,2.4839 9.2163,6.2216 2.5439,-1.0867 4.4184,-2.4003 5.4561,-3.8691 0.4798,-0.6688 0.7253,-1.6719 0.7253,-2.9137 0,-9.0757 -12.6529,-30.9887 -38.0703,-30.9887"
         style="fill:#fad0cb;fill-opacity:1;fill-rule:nonzero;stroke:none;stroke-width:1.1543"
         id="path364" />
      <path
         d="m 3493.9069,3065.1204 c -0.3794,0 -0.7699,0.024 -1.1604,0.071 -4.7309,0.5852 -8.3237,4.6214 -8.9597,9.5892 8.0224,-0.203 14.7617,-1.4688 19.3364,-3.4392 -1.7406,-3.7377 -5.2777,-6.2216 -9.2163,-6.2216"
         style="fill:#677785;fill-opacity:1;fill-rule:nonzero;stroke:none;stroke-width:1.1543"
         id="path366" />
    </g>
  </g>
</svg>
