<?xml version="1.0" encoding="UTF-8" standalone="no"?>
<!-- Created with Inkscape (http://www.inkscape.org/) -->

<svg
   version="1.1"
   id="svg2"
   width="861.52936"
   height="467.72134"
   viewBox="0 0 861.52936 467.72134"
   xmlns="http://www.w3.org/2000/svg"
   xmlns:svg="http://www.w3.org/2000/svg">
  <defs
     id="defs6" />
  <g
     id="g10"
     transform="matrix(1.3333333,0,0,-1.3333333,-519.93731,769.32399)">
    <g
       id="g12"
       transform="scale(0.1)">
      <path
         d="M 10360.9,4763.91 V 3048.53 H 3946.04 v 1715.38 h 693.19 c 44.92,-173.32 79.91,-346.01 12.66,-511.69 -41.28,-101.81 -104.95,-193.13 -148.54,-293.95 -43.52,-100.82 -65.56,-219.21 -20.08,-319.2 18.26,-40.16 45.62,-73.68 78.71,-101.6 124.06,-104.33 308.15,-104.33 432.21,0 33.1,27.92 60.45,61.44 78.72,101.6 45.4,99.99 23.37,218.38 -20.16,319.2 -43.52,100.82 -107.26,192.14 -148.47,293.95 -67.24,165.68 -32.33,338.37 12.66,511.69 h 909.96 c 44.99,-173.32 79.91,-346.01 12.73,-511.69 -41.28,-101.81 -104.95,-193.13 -148.54,-293.95 -43.59,-100.82 -65.56,-219.21 -20.08,-319.2 18.26,-40.16 45.62,-73.68 78.71,-101.6 124.06,-104.33 308.08,-104.33 432.14,0 33.09,27.92 60.45,61.44 78.71,101.6 45.49,99.99 23.44,218.38 -20.08,319.2 -43.59,100.82 -107.33,192.14 -148.55,293.95 -67.17,165.68 -32.25,338.37 12.74,511.69 h 909.96 c 44.99,-173.32 79.9,-346.01 12.67,-511.69 -41.29,-101.81 -104.97,-193.13 -148.48,-293.95 -43.6,-100.82 -65.57,-219.21 -20.16,-319.2 18.33,-40.16 45.63,-73.68 78.72,-101.6 124.12,-104.33 308.15,-104.33 432.2,0 33.09,27.92 60.46,61.44 78.72,101.6 45.48,99.99 23.44,218.38 -20.08,319.2 -43.59,100.82 -107.33,192.14 -148.54,293.95 -67.18,165.68 -32.26,338.37 12.72,511.69 h 909.89 c 44.99,-173.32 79.91,-346.01 12.74,-511.69 -41.28,-101.81 -104.95,-193.13 -148.55,-293.95 -43.52,-100.82 -65.55,-219.21 -20.08,-319.2 18.27,-40.16 45.62,-73.68 78.72,-101.6 124.06,-104.33 308.07,-104.33 432.14,0 33.16,27.92 60.44,61.44 78.79,101.6 45.4,99.99 23.35,218.38 -20.16,319.2 -43.53,100.82 -107.27,192.14 -148.48,293.95 -67.23,165.68 -32.32,338.37 12.67,511.69 h 909.96 c 44.99,-173.32 79.9,-346.01 12.73,-511.69 -41.28,-101.81 -104.96,-193.13 -148.55,-293.95 -43.58,-100.82 -65.56,-219.21 -20.08,-319.2 18.26,-40.16 45.63,-73.68 78.72,-101.6 124.06,-104.33 308.08,-104.33 432.13,0 33.1,27.92 60.46,61.44 78.72,101.6 45.48,99.99 23.44,218.38 -20.09,319.2 -43.58,100.82 -107.33,192.14 -148.54,293.95 -67.17,165.68 -32.26,338.37 12.73,511.69 h 693.08"
         style="fill:#ffe4d2;fill-opacity:1;fill-rule:nonzero;stroke:none"
         id="path16" />
      <path
         d="m 5381.3,3406.99 c -58.37,0 -109.12,32.6 -135.04,80.58 13.8,22.78 26,46.65 36.44,71.37 17.63,41.71 30.37,85.93 37.5,132.03 v 0 0 c 0.56,3.59 1.09,7.19 1.58,10.79 18.3,7.71 38.41,11.98 59.52,11.98 84.7,0 153.37,-68.66 153.37,-153.37 0,-84.71 -68.67,-153.38 -153.37,-153.38"
         style="fill:#fdd7b8;fill-opacity:1;fill-rule:nonzero;stroke:none"
         id="path18" />
      <path
         d="m 8053.62,3048.53 h -438.36 c 0,121.04 98.1,219.21 219.21,219.21 121.05,0 219.15,-98.17 219.15,-219.21"
         style="fill:#fdd7b8;fill-opacity:1;fill-rule:nonzero;stroke:none"
         id="path20" />
      <path
         d="m 10114.5,3966.97 c -88.2,0 -159.8,71.57 -159.8,159.85 0,88.29 71.6,159.86 159.8,159.86 88.3,0 159.9,-71.57 159.9,-159.86 0,-88.28 -71.6,-159.85 -159.9,-159.85"
         style="fill:#fdd7b8;fill-opacity:1;fill-rule:nonzero;stroke:none"
         id="path22" />
      <path
         d="m 10360.9,3048.53 h -361.2 c 0,199.54 161.8,361.24 361.2,361.24 v -361.24"
         style="fill:#fdd7b8;fill-opacity:1;fill-rule:nonzero;stroke:none"
         id="path24" />
      <path
         d="m 8997.94,3395.43 c -58.32,0 -105.59,47.26 -105.59,105.58 0,58.33 47.27,105.59 105.59,105.59 58.31,0 105.58,-47.26 105.58,-105.59 0,-58.32 -47.27,-105.58 -105.58,-105.58"
         style="fill:#fdd7b8;fill-opacity:1;fill-rule:nonzero;stroke:none"
         id="path26" />
      <path
         d="m 4995.52,3048.53 h -495.95 c 9.67,79.39 56.62,147.31 122.85,185.69 4.15,-1.08 8.31,-2.1 12.5,-3.08 v 0 0 c 2.52,-0.63 5.04,-1.19 7.56,-1.76 39.39,-8.87 80.46,-13.49 122.58,-13.49 34.5,0 68.3,3.14 101.11,9.09 v 0 0 c 5.47,0.99 10.91,2.06 16.32,3.2 60.99,-39.23 103.8,-104.26 113.03,-179.65"
         style="fill:#fdd7b8;fill-opacity:1;fill-rule:nonzero;stroke:none"
         id="path28" />
      <path
         d="m 6472.09,3119.99 c -105.21,0 -190.51,85.3 -190.51,190.52 0,105.21 85.3,190.5 190.51,190.5 105.22,0 190.51,-85.29 190.51,-190.5 0,-105.22 -85.29,-190.52 -190.51,-190.52"
         style="fill:#fdd7b8;fill-opacity:1;fill-rule:nonzero;stroke:none"
         id="path30" />
      <path
         d="m 4223.99,4026.38 c -8.29,0 -16.38,0.9 -24.16,2.6 l 14.74,221.52 c 3.11,0.26 6.25,0.39 9.42,0.39 61.38,0 111.26,-49.26 112.25,-110.41 -1.09,-1.28 -2.17,-2.57 -3.24,-3.86 -26.13,-31.41 -48.88,-65.75 -67.74,-102.41 -12.77,-5.06 -26.69,-7.83 -41.27,-7.83"
         style="fill:#fdd7b8;fill-opacity:1;fill-rule:nonzero;stroke:none"
         id="path32" />
      <path
         d="m 5205.24,4161.01 c -13.36,0 -26.04,2.93 -37.44,8.18 -12.44,12.85 -25.51,25.11 -39.17,36.7 -0.66,0.56 -1.31,1.11 -1.97,1.65 -7.01,12.78 -11,27.45 -11,43.05 0,49.47 40.11,89.58 89.58,89.58 49.48,0 89.58,-40.11 89.58,-89.58 0,-49.48 -40.1,-89.58 -89.58,-89.58"
         style="fill:#fdd7b8;fill-opacity:1;fill-rule:nonzero;stroke:none"
         id="path34" />
      <path
         d="m 6649.23,3977.89 c -49.47,0 -89.58,40.1 -89.58,89.58 0,49.47 40.11,89.58 89.58,89.58 49.47,0 89.58,-40.11 89.58,-89.58 0,-49.48 -40.11,-89.58 -89.58,-89.58"
         style="fill:#fdd7b8;fill-opacity:1;fill-rule:nonzero;stroke:none"
         id="path36" />
      <path
         d="m 7924.02,4137.38 c -49.47,0 -89.58,40.1 -89.58,89.58 0,49.48 40.11,89.58 89.58,89.58 49.48,0 89.58,-40.1 89.58,-89.58 0,-49.48 -40.1,-89.58 -89.58,-89.58"
         style="fill:#fdd7b8;fill-opacity:1;fill-rule:nonzero;stroke:none"
         id="path38" />
      <path
         d="m 8794.9,4067.47 c -68.78,0 -124.53,55.76 -124.53,124.53 0,68.79 55.75,124.54 124.53,124.54 68.78,0 124.53,-55.75 124.53,-124.54 0,-68.77 -55.75,-124.53 -124.53,-124.53"
         style="fill:#fdd7b8;fill-opacity:1;fill-rule:nonzero;stroke:none"
         id="path40" />
      <path
         d="m 4638.88,4765.13 0.32,-1.23 h -693.16 v 123.47 h 534.42 c 74.46,0 139.76,-50.16 158.42,-122.24"
         style="fill:#ff7676;fill-opacity:1;fill-rule:nonzero;stroke:none"
         id="path42" />
      <path
         d="m 5826.91,4763.9 h -909.95 l 0.32,1.23 c 18.66,72.08 83.97,122.24 158.42,122.24 h 592.47 c 74.46,0 139.76,-50.16 158.42,-122.24 l 0.32,-1.23"
         style="fill:#ff7676;fill-opacity:1;fill-rule:nonzero;stroke:none"
         id="path44" />
      <path
         d="m 7014.62,4763.9 h -909.95 l 0.33,1.23 c 18.65,72.08 83.96,122.24 158.41,122.24 h 592.48 c 74.45,0 139.75,-50.16 158.42,-122.24 l 0.31,-1.23"
         style="fill:#ff7676;fill-opacity:1;fill-rule:nonzero;stroke:none"
         id="path46" />
      <path
         d="m 8202.33,4763.9 h -909.95 l 0.33,1.23 c 18.65,72.08 83.96,122.24 158.41,122.24 h 592.48 c 74.45,0 139.76,-50.16 158.42,-122.24 l 0.31,-1.23"
         style="fill:#ff7676;fill-opacity:1;fill-rule:nonzero;stroke:none"
         id="path48" />
      <path
         d="M 9390.05,4763.9 H 8480.1 l 0.32,1.23 c 18.65,72.08 83.96,122.24 158.42,122.24 h 592.47 c 74.45,0 139.76,-50.16 158.42,-122.24 l 0.32,-1.23"
         style="fill:#ff7676;fill-opacity:1;fill-rule:nonzero;stroke:none"
         id="path50" />
      <path
         d="M 10361,4887.37 V 4763.9 h -693.19 l 0.32,1.23 c 18.66,72.08 83.96,122.24 158.41,122.24 H 10361"
         style="fill:#ff7676;fill-opacity:1;fill-rule:nonzero;stroke:none"
         id="path52" />
      <path
         d="m 9667.81,4763.9 c -44.98,-173.28 -79.91,-346.03 -12.7,-511.72 8.17,-20.11 17.17,-39.8 26.81,-59.27 l 0.59,-1.29 c 21.82,-51.92 130.84,-327.86 77.04,-548.01 -25.99,-106.35 -119.46,-183.82 -228.95,-184.35 -1.11,-0.01 -2.23,-0.01 -3.35,0 -109.59,0.53 -203.08,78.19 -229.02,184.68 -53.83,221.12 56.35,498.35 77.47,548.38 l 0.24,0.59 c 9.64,19.47 18.64,39.16 26.8,59.27 67.21,165.69 32.29,338.44 -12.69,511.72 H 8480.1 c -44.98,-173.28 -79.9,-346.03 -12.71,-511.72 8.18,-20.11 17.17,-39.8 26.82,-59.27 l 0.35,-0.88 c 21.45,-50.83 131.17,-327.54 77.33,-548.23 -25.96,-106.43 -119.44,-184 -228.98,-184.54 -1.12,-0.01 -2.25,-0.01 -3.36,0 -109.61,0.53 -203.1,78.19 -229.02,184.68 -53.85,221.12 56.35,498.35 77.46,548.38 l 0.23,0.59 c 9.65,19.47 18.64,39.16 26.82,59.27 67.21,165.69 32.27,338.44 -12.71,511.72 h -909.95 c -44.98,-173.28 -79.9,-346.03 -12.69,-511.72 8.17,-20.11 17.17,-39.8 26.8,-59.27 l 0.59,-1.29 c 21.83,-51.92 130.85,-327.86 77.05,-548.01 -25.98,-106.35 -119.47,-183.82 -228.94,-184.35 -1.13,-0.01 -2.25,-0.01 -3.36,0 -109.33,0.53 -202.82,77.78 -228.86,183.96 -53.7,218.92 53.88,493.25 76.6,547.52 l 0.95,2.17 c 9.64,19.47 18.63,39.16 26.8,59.27 67.21,165.69 32.29,338.44 -12.7,511.72 h -909.95 c -44.98,-173.28 -79.91,-346.03 -12.7,-511.72 8.18,-20.11 17.17,-39.8 26.81,-59.27 l 0.24,-0.59 c 21.12,-50.03 131.3,-327.26 77.47,-548.37 -25.93,-106.5 -119.43,-184.16 -229.03,-184.69 -1.12,-0.01 -2.24,-0.01 -3.35,0 -109.56,0.53 -203.03,78.11 -228.99,184.54 -53.84,220.7 55.88,497.4 77.33,548.23 l 0.35,0.88 c 9.65,19.47 18.64,39.16 26.81,59.27 67.21,165.69 32.29,338.44 -12.7,511.72 h -909.95 c -44.98,-173.28 -79.9,-346.03 -12.7,-511.72 8.17,-20.11 17.17,-39.8 26.81,-59.27 l 0.24,-0.59 c 21.12,-50.03 131.3,-327.26 77.46,-548.38 -25.93,-106.49 -119.41,-184.15 -229.02,-184.68 -1.11,-0.01 -2.23,-0.01 -3.34,0 -109.49,0.53 -202.96,78 -228.95,184.36 -53.8,220.14 55.23,496.08 77.1,548 l 0.53,1.29 c 9.64,19.47 18.64,39.16 26.81,59.27 67.21,165.69 32.28,338.44 -12.7,511.72 h -693.16 v -374.66 h 404.34 c 105.31,0 179.11,-93.37 166.76,-188.98 -2.53,-19.75 -8.76,-39.57 -19.17,-58.74 l -0.82,-1.52 c -25.76,-46.75 -52.39,-95.08 -74.73,-146.76 -26.23,-60.63 -50.63,-138.77 -52.51,-221.44 v -19.98 c 1.12,-49.34 10.64,-99.96 33.1,-149.23 19.52,-42.98 47.63,-81.91 83.79,-116.07 5.94,-5.64 12.11,-11.17 18.46,-16.52 75.85,-63.8 172.75,-98.96 272.82,-98.96 100.08,0 196.97,35.16 272.82,98.96 6.35,5.35 12.53,10.88 18.46,16.52 36.16,34.16 64.27,73.09 83.79,116.07 22.46,49.27 31.99,99.89 33.1,149.23 v 19.98 c -1.88,82.67 -26.28,160.81 -52.5,221.44 -22.34,51.68 -48.98,100.01 -74.73,146.76 l -0.83,1.52 c -10.4,19.17 -16.64,38.99 -19.17,58.74 -12.34,95.61 61.45,188.98 166.76,188.98 h 332.32 c 105.31,0 179.1,-93.37 166.75,-188.98 -2.53,-19.75 -8.76,-39.57 -19.17,-58.74 l -0.82,-1.52 c -25.76,-46.75 -52.39,-95.08 -74.73,-146.76 -26.23,-60.63 -50.63,-138.77 -52.51,-221.44 v -19.98 c 1.12,-49.34 10.64,-99.96 33.1,-149.23 19.52,-42.98 47.63,-81.91 83.79,-116.07 5.94,-5.64 12.11,-11.17 18.46,-16.52 75.85,-63.8 172.75,-98.96 272.82,-98.96 100.08,0 196.97,35.16 272.82,98.96 6.36,5.35 12.53,10.88 18.47,16.52 36.16,34.16 64.26,73.09 83.78,116.07 22.46,49.27 31.99,99.89 33.11,149.23 v 19.98 c -1.88,82.67 -26.28,160.81 -52.51,221.44 -22.34,51.68 -48.98,100.01 -74.73,146.76 l -0.83,1.52 c -10.4,19.17 -16.63,38.99 -19.16,58.74 -12.35,95.61 61.44,188.98 166.75,188.98 h 332.32 c 105.3,0 179.1,-93.37 166.75,-188.98 -2.53,-19.75 -8.76,-39.57 -19.17,-58.74 l -0.82,-1.52 c -25.75,-46.75 -52.38,-95.08 -74.73,-146.76 -26.23,-60.63 -50.62,-138.77 -52.51,-221.44 v -19.98 c 1.12,-49.34 10.64,-99.96 33.11,-149.23 19.52,-42.98 47.62,-81.91 83.78,-116.07 5.94,-5.64 12.12,-11.17 18.46,-16.52 75.85,-63.8 172.75,-98.96 272.83,-98.96 100.06,0 196.97,35.16 272.82,98.96 6.35,5.35 12.52,10.88 18.46,16.52 36.16,34.16 64.26,73.09 83.78,116.07 22.47,49.27 31.99,99.89 33.11,149.23 v 19.93 c -1.89,82.72 -26.29,160.81 -52.51,221.49 -22.35,51.68 -48.98,100.01 -74.73,146.76 l -0.83,1.52 c -10.4,19.17 -16.64,38.99 -19.17,58.74 -12.34,95.61 61.45,188.98 166.76,188.98 h 332.33 c 105.3,0 179.09,-93.37 166.74,-188.98 -2.53,-19.69 -8.76,-39.51 -19.11,-58.68 l -0.88,-1.58 c -25.75,-46.75 -52.39,-95.08 -74.73,-146.76 -26.23,-60.63 -50.63,-138.77 -52.5,-221.44 v -19.98 c 1.11,-49.34 10.64,-99.96 33.09,-149.23 19.52,-42.98 47.63,-81.91 83.79,-116.07 5.94,-5.64 12.11,-11.17 18.47,-16.52 75.85,-63.8 172.74,-98.96 272.82,-98.96 100.07,0 196.96,35.16 272.81,98.96 6.36,5.35 12.53,10.88 18.47,16.52 36.16,34.16 64.27,73.09 83.79,116.07 22.46,49.27 31.98,99.89 33.1,149.23 v 19.93 c -1.88,82.72 -26.29,160.81 -52.51,221.49 -22.34,51.68 -48.98,100.01 -74.73,146.76 l -0.82,1.52 c -10.41,19.17 -16.64,38.99 -19.17,58.74 -12.35,95.61 61.44,188.98 166.74,188.98 h 332.33 c 105.31,0 179.1,-93.37 166.76,-188.98 -2.53,-19.69 -8.76,-39.51 -19.11,-58.68 L 9248,4140 c -25.76,-46.75 -52.39,-95.08 -74.74,-146.76 -26.22,-60.63 -50.62,-138.77 -52.51,-221.44 v -19.98 c 1.12,-49.34 10.65,-99.96 33.11,-149.23 19.52,-42.98 47.62,-81.91 83.79,-116.07 5.93,-5.64 12.1,-11.17 18.45,-16.52 75.85,-63.8 172.76,-98.96 272.83,-98.96 100.07,0 196.97,35.16 272.82,98.96 6.34,5.35 12.53,10.88 18.47,16.52 36.15,34.16 64.26,73.09 83.78,116.07 22.46,49.27 31.99,99.89 33.1,149.23 v 19.93 c -1.88,82.72 -26.28,160.81 -52.5,221.49 -22.34,51.68 -48.99,100.01 -74.74,146.76 l -0.82,1.52 c -10.41,19.17 -16.64,38.99 -19.17,58.74 -12.34,95.61 61.45,188.98 166.75,188.98 H 10361 v 374.66 h -693.19"
         style="fill:#ffaeae;fill-opacity:1;fill-rule:nonzero;stroke:none"
         id="path54" />
      <path
         d="m 4766.81,4120.53 c 4.05,-84.08 -16.24,-175.2 -50.21,-252.22 -22.88,-51.87 -54.21,-101.26 -63.17,-157.24 -8.02,-50.18 4.02,-104.46 37.25,-142.93 33.23,-38.46 88.45,-58.43 137.39,-44.69 48.94,13.74 86.82,63.46 81.95,114.06 -6.31,65.68 -72.43,107.68 -102.14,166.6 -49.52,98.22 9.86,218.93 -41.07,316.42"
         style="fill:#201d1e;fill-opacity:1;fill-rule:nonzero;stroke:none"
         id="path56" />
      <path
         d="m 6024.38,4982.67 c -95.61,-197.35 -78.79,-431.36 -64.16,-650.16 10.82,-161.87 22.45,-327.23 85.52,-476.71 22.51,-53.34 51.61,-104.83 61.74,-161.84 10.14,-56.99 -3.61,-123.23 -51.32,-156.03 -51.31,-35.27 -126.64,-18.03 -169.27,27.34 -42.63,45.38 -56.87,111.44 -53.75,173.62 3.12,62.19 21.57,122.4 36.36,182.88 25.81,105.5 40.76,213.66 44.55,322.21 4.42,126.93 -6.37,254.21 2.29,380.93 8.67,126.71 31.37,256.5 108.04,357.76"
         style="fill:#201d1e;fill-opacity:1;fill-rule:nonzero;stroke:none"
         id="path58" />
      <path
         d="m 7313.64,5531.16 c -49,-277.77 -105.59,-551.88 -120.63,-833.55 -15.04,-281.66 4.77,-567.99 90.94,-836.58 16.58,-51.69 35.73,-103.33 39.86,-157.45 4.13,-54.12 -9.08,-112.52 -48.52,-149.81 -50.35,-47.65 -139.15,-45.92 -187.61,3.63 -54.87,56.1 -50.31,145.44 -42.06,223.47 33.75,319.68 67.5,639.35 101.25,959.03 28.5,270.07 66.68,538.81 166.77,791.26"
         style="fill:#201d1e;fill-opacity:1;fill-rule:nonzero;stroke:none"
         id="path60" />
      <path
         d="m 8506.18,5769.93 c -49,-277.78 -105.58,-551.89 -120.62,-833.56 -15.05,-281.66 4.77,-567.99 90.93,-836.58 16.58,-51.68 35.73,-103.33 39.86,-157.45 4.13,-54.12 -9.07,-112.51 -48.51,-149.81 -50.36,-47.64 -139.15,-45.92 -187.62,3.64 -54.86,56.08 -50.3,145.44 -42.06,223.46 33.74,319.68 67.49,639.35 101.24,959.03 28.52,270.07 66.7,538.81 166.78,791.27"
         style="fill:#201d1e;fill-opacity:1;fill-rule:nonzero;stroke:none"
         id="path62" />
      <path
         d="m 9703.92,5536.27 c -46.28,-209.51 -98.21,-415.99 -118.79,-629.56 -20.6,-213.58 -14.85,-431.83 41.89,-638.75 10.92,-39.82 23.79,-79.69 25.18,-120.95 1.37,-41.27 -10.57,-85.22 -41.74,-112.29 -39.83,-34.56 -107.25,-30.37 -142.48,8.87 -39.86,44.41 -33.49,112.17 -24.69,171.2 36.05,241.85 72.09,483.71 108.14,725.56 30.45,204.32 68.21,407.31 152.49,595.92"
         style="fill:#201d1e;fill-opacity:1;fill-rule:nonzero;stroke:none"
         id="path64" />
      <path
         d="m 8206.79,3799.22 c 17.83,-37.98 52.19,-67.96 90.89,-84.19 26.46,-11.1 55.26,-15.38 82.48,-24.47 27.21,-9.1 54.3,-24.54 67.23,-50.16 11.84,-23.48 9.56,-52.68 -2.96,-75.79 -12.53,-23.12 -34.33,-40.36 -58.57,-50.56 -44.45,-18.69 -102.21,-11.53 -132.01,26.38 -20.85,26.51 -24.89,62.12 -28.15,95.69 -5.1,52.67 -13.81,110.43 -18.91,163.1"
         style="fill:#201d1e;fill-opacity:1;fill-rule:nonzero;stroke:none"
         id="path66" />
      <path
         d="m 9689.24,4089.71 c -76.39,-132.81 -101.96,-292.59 -82.57,-447.07 3.35,-26.65 8.12,-53.97 0.47,-78.78 -7.65,-24.81 -30.68,-47.14 -65.54,-50.22 -42.22,-3.72 -88.2,22.68 -108.66,53.49 -27.29,41.06 -18.17,85.65 -4.36,125.29 51.53,147.75 153.97,272.11 260.66,397.29"
         style="fill:#201d1e;fill-opacity:1;fill-rule:nonzero;stroke:none"
         id="path68" />
      <path
         d="M 6518.69,2826.65 6409.96,2687.26 H 3946.04 v 278.76 h 2463.92 l 108.73,-139.37"
         style="fill:#ff7676;fill-opacity:1;fill-rule:nonzero;stroke:none"
         id="path70" />
      <path
         d="m 7705.87,2826.65 -108.8,-139.39 H 6472.09 l 108.73,139.39 -108.73,139.37 h 1124.98 l 108.8,-139.37"
         style="fill:#ff7676;fill-opacity:1;fill-rule:nonzero;stroke:none"
         id="path72" />
      <path
         d="M 8896.12,2826.65 8787.39,2687.26 H 7659.2 l 108.8,139.39 -108.73,139.37 h 1128.12 l 108.73,-139.37"
         style="fill:#ff7676;fill-opacity:1;fill-rule:nonzero;stroke:none"
         id="path74" />
      <path
         d="M 10360.9,2966.02 V 2687.26 H 8849.53 l 108.73,139.39 -108.73,139.37 h 1511.37"
         style="fill:#ff7676;fill-opacity:1;fill-rule:nonzero;stroke:none"
         id="path76" />
      <path
         d="m 10316.7,2628.58 v -98.57 H 8957.19 v 98.57 h -44.23 v -98.57 H 7769.47 v 98.57 h -44.22 v -98.57 H 6581.76 v 98.57 h -44.22 v -98.57 H 3990.26 v 98.57 h -44.22 v -248.31 h 44.22 v 105.57 h 2547.28 v -105.57 h 44.22 v 105.57 h 1143.49 v -105.57 h 44.22 v 105.57 h 1143.49 v -105.57 h 44.23 v 105.57 h 1359.51 v -105.57 h 44.3 v 105.57 44.17 98.57 h -44.3"
         style="fill:#ff7676;fill-opacity:1;fill-rule:nonzero;stroke:none"
         id="path78" />
      <path
         d="m 5009.88,2827.48 12.24,32.68 c 1.66,4.53 3.11,9.1 4.36,13.69 1.59,-4.7 3.48,-9.96 5.67,-15.77 l 11.54,-30.6 z m 5.6,73.72 -50.32,-131.04 h 24 l 13.74,37.88 h 48.17 l 14.59,-37.88 H 5091 l -53.64,131.04 h -21.88"
         style="fill:#ffffff;fill-opacity:1;fill-rule:nonzero;stroke:none"
         id="path80" />
      <path
         d="m 5168.26,2856.86 c -2.59,3.63 -6.47,6.56 -11.53,8.73 -4.93,2.11 -10.4,3.19 -16.24,3.19 -10.47,0 -19.14,-3.26 -25.86,-9.71 v 7.66 h -19.78 v -96.57 h 21.32 v 52.46 c 0,10.66 2.05,17.86 6.1,21.4 4.23,3.69 9.13,5.49 14.98,5.49 3.52,0 6.61,-0.79 9.16,-2.34 2.49,-1.52 4.17,-3.46 5.13,-5.95 1.05,-2.73 1.59,-7.1 1.59,-12.97 v -58.09 h 21.31 v 58.69 c 0,7.37 -0.29,12.44 -0.91,15.54 -1,4.77 -2.77,8.97 -5.27,12.47"
         style="fill:#ffffff;fill-opacity:1;fill-rule:nonzero;stroke:none"
         id="path82" />
      <path
         d="m 5210.82,2803.12 c 1.11,1.71 2.66,2.97 4.75,3.88 2.36,1.03 6.61,1.98 12.63,2.86 9.06,1.3 16.2,2.79 21.69,4.52 v -1.4 c 0,-6.29 -0.73,-11.03 -2.18,-14.07 -1.91,-3.97 -4.83,-7.02 -8.93,-9.32 -4.14,-2.32 -8.96,-3.5 -14.33,-3.5 -5.2,0 -9.11,1.13 -11.64,3.35 -2.45,2.16 -3.64,4.78 -3.64,8.01 0,2.1 0.54,3.96 1.65,5.67 z m 61.49,-18.6 c -0.62,3.59 -0.93,12.53 -0.93,26.58 v 20.48 c 0,7.09 -0.28,11.91 -0.84,14.8 -1,4.65 -2.82,8.6 -5.39,11.71 -2.61,3.16 -6.61,5.77 -11.91,7.76 -5.16,1.94 -11.86,2.93 -19.91,2.93 -8.1,0 -15.36,-1.14 -21.58,-3.38 -6.41,-2.32 -11.42,-5.7 -14.89,-10.08 -3.4,-4.31 -5.86,-9.96 -7.32,-16.81 l -0.66,-3.13 20.82,-2.84 0.66,2.57 c 1.47,5.71 3.65,9.67 6.52,11.78 2.9,2.13 7.69,3.22 14.23,3.22 6.95,0 12.17,-1.51 15.52,-4.47 2.22,-1.95 3.35,-5.65 3.35,-10.98 l -0.04,-1.84 c -5.67,-1.7 -14,-3.22 -24.82,-4.51 -6.3,-0.77 -10.9,-1.55 -14.09,-2.4 -4.38,-1.2 -8.4,-3.04 -11.93,-5.43 -3.65,-2.48 -6.63,-5.8 -8.87,-9.87 -2.26,-4.09 -3.4,-8.66 -3.4,-13.59 0,-8.4 3.03,-15.42 9,-20.85 5.88,-5.35 14.28,-8.07 24.96,-8.07 6.35,0 12.41,1.08 17.99,3.18 4.3,1.64 8.75,4.17 13.28,7.55 0.6,-2.55 1.44,-4.91 2.5,-7.03 l 0.82,-1.64 h 22.95 l -2.47,4.42 c -1.76,3.15 -2.95,6.5 -3.55,9.94"
         style="fill:#ffffff;fill-opacity:1;fill-rule:nonzero;stroke:none"
         id="path84" />
      <path
         d="m 5342.44,2795.96 c -4.22,-4.81 -9.3,-7.13 -15.51,-7.13 -6.26,0 -11.33,2.34 -15.49,7.16 -4.22,4.87 -6.36,12.96 -6.36,24.07 0,10.14 2.17,17.8 6.44,22.76 4.23,4.9 9.18,7.29 15.15,7.29 6.1,0 11.18,-2.44 15.56,-7.44 4.41,-5.03 6.64,-12.82 6.64,-23.12 0,-10.81 -2.16,-18.74 -6.43,-23.59 z m 6.6,64.26 c -6.58,5.69 -14.45,8.56 -23.47,8.56 -8.58,0 -16.19,-2.18 -22.61,-6.49 -6.4,-4.28 -11.34,-10.42 -14.69,-18.23 -3.27,-7.65 -4.93,-16.09 -4.93,-25.11 0,-13.18 3.65,-24.66 10.84,-34.14 7.39,-9.72 17.92,-14.65 31.3,-14.65 8.39,0 15.78,2.57 22.06,7.69 -0.14,-7.03 -0.58,-10.3 -0.96,-11.81 -1.19,-4.48 -3.4,-7.85 -6.74,-10.31 -3.32,-2.44 -8.27,-3.68 -14.7,-3.68 -5.92,0 -10.57,1.23 -13.85,3.68 -2.18,1.61 -3.5,4.26 -4.02,8.08 l -0.3,2.21 -20.48,3.04 -0.08,-3.37 c -0.25,-10.77 3.4,-18.99 10.86,-24.44 7.15,-5.23 16.55,-7.87 27.95,-7.87 9.57,0 17.79,1.84 24.43,5.49 6.75,3.69 11.77,8.82 14.9,15.25 3.1,6.36 4.61,16.6 4.61,31.3 v 81.31 h -20.12 v -6.51"
         style="fill:#ffffff;fill-opacity:1;fill-rule:nonzero;stroke:none"
         id="path86" />
      <path
         d="m 5448.24,2830.13 h -43.93 c 0.88,5.7 3.1,10.25 6.75,13.83 4.27,4.19 9.41,6.22 15.71,6.22 6.92,0 12.4,-2.53 16.74,-7.8 2.32,-2.78 3.91,-6.89 4.73,-12.25 z m 0.38,-26.81 c -2.12,-5.89 -4.96,-10.2 -8.44,-12.78 -3.49,-2.59 -7.63,-3.85 -12.65,-3.85 -6.78,0 -12.27,2.29 -16.79,7.02 -4,4.18 -6.47,10.17 -7.36,17.82 h 67.23 l 0.09,2.89 c 0.06,1.86 0.09,3.26 0.09,4.19 0,15.68 -4.15,28.07 -12.32,36.84 -8.24,8.85 -18.96,13.33 -31.87,13.33 -13.32,0 -24.33,-4.57 -32.73,-13.59 -8.34,-8.93 -12.58,-21.56 -12.58,-37.52 0,-15.45 4.2,-27.7 12.47,-36.4 8.32,-8.73 19.65,-13.17 33.69,-13.17 11.13,0 20.47,2.79 27.74,8.29 7.27,5.5 12.31,13.31 14.98,23.19 l 0.89,3.31 -21.64,2.67 -0.8,-2.24"
         style="fill:#ffffff;fill-opacity:1;fill-rule:nonzero;stroke:none"
         id="path88" />
      <path
         d="m 5562.28,2844.39 c -1,4.77 -2.77,8.97 -5.27,12.47 -2.59,3.63 -6.47,6.56 -11.53,8.73 -4.93,2.11 -10.39,3.19 -16.24,3.19 -10.47,0 -19.13,-3.26 -25.86,-9.71 v 7.66 h -19.78 v -96.57 h 21.32 v 52.46 c 0,10.66 2.05,17.86 6.11,21.4 4.22,3.69 9.12,5.49 14.97,5.49 3.53,0 6.61,-0.79 9.16,-2.34 2.5,-1.52 4.17,-3.46 5.13,-5.95 1.05,-2.73 1.59,-7.1 1.59,-12.97 v -58.09 h 21.32 v 58.69 c 0,7.37 -0.3,12.44 -0.92,15.54"
         style="fill:#ffffff;fill-opacity:1;fill-rule:nonzero;stroke:none"
         id="path90" />
      <path
         d="m 6883.69,2817.62 c -2.12,-9.81 -6.17,-17.26 -12.04,-22.14 -5.94,-4.94 -13.01,-7.34 -21.65,-7.34 -7.04,0 -13.67,1.84 -19.72,5.46 -6.01,3.62 -10.34,8.96 -13.22,16.32 -2.95,7.55 -4.44,16.56 -4.44,26.78 0,7.89 1.27,15.64 3.77,23.07 2.39,7.11 6.61,12.87 12.52,17.08 5.9,4.22 13.43,6.36 22.37,6.36 7.67,0 14.07,-1.89 19.03,-5.62 4.98,-3.76 8.88,-9.95 11.58,-18.41 l 0.83,-2.63 22.05,5.19 -0.88,3.01 c -3.53,12.13 -9.9,21.69 -18.91,28.43 -9.02,6.74 -20.24,10.15 -33.36,10.15 -11.48,0 -22.18,-2.67 -31.77,-7.91 -9.67,-5.31 -17.23,-13.17 -22.46,-23.36 -5.17,-10.08 -7.79,-22 -7.79,-35.45 0,-12.28 2.3,-23.95 6.85,-34.7 4.62,-10.91 11.49,-19.38 20.4,-25.17 8.9,-5.79 20.51,-8.72 34.52,-8.72 13.65,0 25.4,3.81 34.91,11.35 9.5,7.52 16.14,18.53 19.76,32.7 l 0.75,2.9 -22.44,5.66 -0.66,-3.01"
         style="fill:#ffffff;fill-opacity:1;fill-rule:nonzero;stroke:none"
         id="path92" />
      <path
         d="m 6937.39,2803.12 c 1.12,1.71 2.67,2.97 4.76,3.88 2.35,1.03 6.61,1.98 12.63,2.86 9.05,1.3 16.2,2.79 21.68,4.52 v -1.4 c 0,-6.29 -0.73,-11.03 -2.17,-14.07 -1.92,-3.97 -4.84,-7.02 -8.94,-9.32 -4.13,-2.32 -8.95,-3.5 -14.32,-3.5 -5.2,0 -9.12,1.13 -11.65,3.35 -2.45,2.16 -3.64,4.78 -3.64,8.01 0,2.1 0.55,3.96 1.65,5.67 z m 61.5,-18.6 c -0.63,3.59 -0.94,12.53 -0.94,26.58 v 20.48 c 0,7.09 -0.27,11.91 -0.83,14.8 -1.01,4.65 -2.82,8.6 -5.39,11.71 -2.61,3.16 -6.62,5.77 -11.92,7.76 -5.15,1.94 -11.85,2.93 -19.91,2.93 -8.09,0 -15.35,-1.14 -21.57,-3.38 -6.42,-2.32 -11.43,-5.7 -14.89,-10.08 -3.41,-4.31 -5.87,-9.96 -7.33,-16.81 l -0.66,-3.13 20.82,-2.84 0.66,2.57 c 1.47,5.71 3.67,9.67 6.52,11.78 2.9,2.13 7.69,3.22 14.24,3.22 6.94,0 12.16,-1.51 15.51,-4.47 2.22,-1.95 3.35,-5.65 3.35,-10.98 l -0.04,-1.84 c -5.66,-1.7 -13.99,-3.22 -24.82,-4.51 -6.29,-0.77 -10.89,-1.55 -14.08,-2.4 -4.39,-1.2 -8.4,-3.04 -11.93,-5.43 -3.65,-2.48 -6.64,-5.8 -8.87,-9.87 -2.26,-4.09 -3.4,-8.66 -3.4,-13.59 0,-8.4 3.03,-15.42 8.99,-20.85 5.89,-5.35 14.29,-8.07 24.95,-8.07 6.37,0 12.43,1.08 18,3.18 4.31,1.64 8.75,4.17 13.28,7.55 0.6,-2.55 1.44,-4.91 2.5,-7.03 l 0.82,-1.64 h 22.95 l -2.47,4.42 c -1.76,3.15 -2.95,6.5 -3.54,9.94"
         style="fill:#ffffff;fill-opacity:1;fill-rule:nonzero;stroke:none"
         id="path94" />
      <path
         d="m 7051.88,2789.81 c -2.61,-0.37 -4.74,-0.56 -6.31,-0.56 -2.25,0 -3.28,0.43 -3.7,0.68 l -1.46,1.62 c -0.1,0.22 -0.57,1.59 -0.57,7.27 v 50 h 15.45 v 17.91 h -15.45 v 33.95 l -21.23,-12.81 v -21.14 h -11.26 v -17.91 h 11.26 v -49.15 c 0,-9.86 0.68,-16 2.13,-19.32 1.51,-3.47 4.11,-6.27 7.74,-8.36 3.55,-2.04 8.28,-3.03 14.45,-3.03 3.59,0 7.7,0.47 12.21,1.43 l 2.79,0.58 -3.15,19.26 -2.9,-0.42"
         style="fill:#ffffff;fill-opacity:1;fill-rule:nonzero;stroke:none"
         id="path96" />
      <path
         d="m 7083.13,2803.12 c 1.12,1.71 2.67,2.97 4.76,3.88 2.35,1.03 6.61,1.98 12.63,2.86 9.05,1.3 16.2,2.79 21.69,4.52 v -1.4 c 0,-6.29 -0.74,-11.03 -2.18,-14.07 -1.91,-3.97 -4.83,-7.02 -8.94,-9.32 -4.13,-2.32 -8.95,-3.5 -14.32,-3.5 -5.2,0 -9.11,1.13 -11.64,3.35 -2.45,2.16 -3.65,4.78 -3.65,8.01 0,2.1 0.55,3.96 1.65,5.67 z m 61.5,-18.6 c -0.63,3.59 -0.94,12.53 -0.94,26.58 v 20.48 c 0,7.09 -0.27,11.91 -0.83,14.8 -1,4.65 -2.82,8.6 -5.39,11.71 -2.61,3.16 -6.62,5.77 -11.92,7.76 -5.16,1.94 -11.85,2.93 -19.91,2.93 -8.09,0 -15.36,-1.14 -21.57,-3.38 -6.41,-2.32 -11.42,-5.7 -14.89,-10.08 -3.4,-4.31 -5.87,-9.96 -7.32,-16.81 l -0.67,-3.13 20.82,-2.84 0.67,2.57 c 1.46,5.71 3.65,9.67 6.51,11.78 2.9,2.13 7.69,3.22 14.24,3.22 6.94,0 12.17,-1.51 15.52,-4.47 2.21,-1.95 3.34,-5.65 3.34,-10.98 l -0.03,-1.84 c -5.67,-1.7 -14,-3.22 -24.83,-4.51 -6.29,-0.77 -10.89,-1.55 -14.08,-2.4 -4.39,-1.2 -8.4,-3.04 -11.93,-5.43 -3.66,-2.48 -6.63,-5.8 -8.87,-9.87 -2.26,-4.09 -3.4,-8.66 -3.4,-13.59 0,-8.4 3.03,-15.42 8.99,-20.85 5.89,-5.35 14.29,-8.07 24.96,-8.07 6.36,0 12.42,1.08 17.99,3.18 4.31,1.64 8.75,4.17 13.29,7.55 0.59,-2.55 1.43,-4.91 2.5,-7.03 l 0.82,-1.64 h 22.94 l -2.47,4.42 c -1.75,3.15 -2.95,6.5 -3.54,9.94"
         style="fill:#ffffff;fill-opacity:1;fill-rule:nonzero;stroke:none"
         id="path98" />
      <path
         d="m 7214.76,2795.96 c -4.22,-4.81 -9.3,-7.13 -15.51,-7.13 -6.26,0 -11.33,2.34 -15.5,7.16 -4.22,4.87 -6.36,12.96 -6.36,24.07 0,10.14 2.17,17.8 6.45,22.76 4.23,4.9 9.18,7.29 15.15,7.29 6.1,0 11.18,-2.44 15.55,-7.44 4.41,-5.03 6.65,-12.82 6.65,-23.12 0,-10.81 -2.17,-18.74 -6.43,-23.59 z m 6.6,64.26 c -6.58,5.69 -14.46,8.56 -23.48,8.56 -8.57,0 -16.18,-2.18 -22.61,-6.49 -6.39,-4.28 -11.33,-10.42 -14.68,-18.23 -3.28,-7.65 -4.94,-16.09 -4.94,-25.11 0,-13.18 3.66,-24.66 10.85,-34.14 7.39,-9.72 17.92,-14.65 31.29,-14.65 8.4,0 15.78,2.57 22.07,7.69 -0.14,-7.03 -0.58,-10.3 -0.96,-11.81 -1.19,-4.48 -3.4,-7.85 -6.74,-10.31 -3.33,-2.44 -8.27,-3.68 -14.7,-3.68 -5.92,0 -10.58,1.23 -13.85,3.68 -2.19,1.61 -3.5,4.26 -4.02,8.08 l -0.3,2.21 -20.48,3.04 -0.08,-3.37 c -0.25,-10.77 3.4,-18.99 10.86,-24.44 7.15,-5.23 16.55,-7.87 27.95,-7.87 9.57,0 17.79,1.84 24.43,5.49 6.75,3.69 11.76,8.82 14.9,15.25 3.1,6.36 4.6,16.6 4.6,31.3 v 81.31 h -20.11 v -6.51"
         style="fill:#ffffff;fill-opacity:1;fill-rule:nonzero;stroke:none"
         id="path100" />
      <path
         d="m 7320.56,2830.13 h -43.93 c 0.87,5.7 3.1,10.25 6.75,13.83 4.27,4.19 9.4,6.22 15.7,6.22 6.93,0 12.4,-2.53 16.74,-7.8 2.33,-2.78 3.92,-6.89 4.74,-12.25 z m 0.38,-26.81 c -2.12,-5.89 -4.96,-10.2 -8.45,-12.78 -3.49,-2.59 -7.62,-3.85 -12.64,-3.85 -6.78,0 -12.27,2.29 -16.79,7.02 -4.01,4.18 -6.48,10.17 -7.36,17.82 h 67.23 l 0.09,2.89 c 0.06,1.86 0.09,3.26 0.09,4.19 0,15.68 -4.15,28.07 -12.33,36.84 -8.23,8.85 -18.95,13.33 -31.87,13.33 -13.31,0 -24.33,-4.57 -32.72,-13.59 -8.35,-8.94 -12.58,-21.56 -12.58,-37.52 0,-15.45 4.19,-27.7 12.46,-36.4 8.32,-8.73 19.65,-13.17 33.7,-13.17 11.13,0 20.46,2.79 27.73,8.29 7.28,5.5 12.31,13.31 14.99,23.18 l 0.89,3.32 -21.64,2.67 -0.8,-2.24"
         style="fill:#ffffff;fill-opacity:1;fill-rule:nonzero;stroke:none"
         id="path102" />
      <path
         d="m 7434.6,2844.39 c -1,4.77 -2.77,8.97 -5.27,12.47 -2.59,3.63 -6.47,6.56 -11.54,8.72 -4.93,2.12 -10.39,3.2 -16.23,3.2 -10.48,0 -19.14,-3.26 -25.87,-9.71 v 7.66 h -19.77 v -96.57 h 21.32 v 52.46 c 0,10.66 2.05,17.86 6.1,21.4 4.23,3.69 9.13,5.49 14.98,5.49 3.53,0 6.6,-0.79 9.16,-2.34 2.49,-1.52 4.17,-3.46 5.13,-5.95 1.05,-2.73 1.59,-7.11 1.59,-12.97 v -58.09 h 21.31 v 58.69 c 0,7.37 -0.3,12.44 -0.91,15.54"
         style="fill:#ffffff;fill-opacity:1;fill-rule:nonzero;stroke:none"
         id="path104" />
      <path
         d="m 8092.82,2901.2 h -105.11 v -20.72 h 41.22 v -110.32 h 22.52 v 110.32 h 41.37 v 20.72"
         style="fill:#ffffff;fill-opacity:1;fill-rule:nonzero;stroke:none"
         id="path106" />
      <path
         d="m 8144.35,2830.13 h -43.94 c 0.88,5.7 3.11,10.25 6.75,13.83 4.28,4.19 9.41,6.22 15.71,6.22 6.92,0 12.39,-2.53 16.74,-7.8 2.32,-2.78 3.92,-6.89 4.74,-12.25 z m 0.38,-26.81 c -2.12,-5.89 -4.96,-10.2 -8.45,-12.78 -3.49,-2.59 -7.62,-3.85 -12.64,-3.85 -6.78,0 -12.27,2.29 -16.79,7.02 -4.01,4.18 -6.48,10.17 -7.36,17.82 h 67.23 l 0.09,2.89 c 0.06,1.86 0.08,3.26 0.08,4.19 0,15.68 -4.15,28.07 -12.32,36.84 -8.23,8.85 -18.95,13.33 -31.87,13.33 -13.32,0 -24.33,-4.57 -32.73,-13.59 -8.34,-8.94 -12.57,-21.56 -12.57,-37.52 0,-15.45 4.19,-27.7 12.46,-36.4 8.32,-8.73 19.65,-13.17 33.69,-13.17 11.14,0 20.47,2.79 27.74,8.29 7.27,5.5 12.31,13.31 14.99,23.19 l 0.89,3.31 -21.64,2.67 -0.8,-2.24"
         style="fill:#ffffff;fill-opacity:1;fill-rule:nonzero;stroke:none"
         id="path108" />
      <path
         d="m 8179.37,2770.16 h 21.31 v 131.04 h -21.31 v -131.04"
         style="fill:#ffffff;fill-opacity:1;fill-rule:nonzero;stroke:none"
         id="path110" />
      <path
         d="m 8258.28,2786.69 c -6.84,0 -12.36,2.5 -16.87,7.64 -4.55,5.19 -6.86,13.31 -6.86,24.11 0,10.81 2.31,18.89 6.86,24.06 4.51,5.12 10.03,7.61 16.87,7.61 6.73,0 12.21,-2.51 16.76,-7.66 4.57,-5.19 6.88,-13.09 6.88,-23.5 0,-11.09 -2.3,-19.36 -6.85,-24.58 -4.51,-5.17 -10,-7.68 -16.79,-7.68 z m 0,82.09 c -11.88,0 -22.13,-3.63 -30.45,-10.8 -9.97,-8.64 -15.02,-21.94 -15.02,-39.54 0,-16.03 4.23,-28.55 12.57,-37.22 8.36,-8.7 19.43,-13.12 32.9,-13.12 8.38,0 16.23,2 23.33,5.92 7.17,3.97 12.72,9.62 16.48,16.8 3.7,7.08 5.58,16.81 5.58,28.9 0,15.12 -4.28,27.2 -12.69,35.9 -8.46,8.73 -19.46,13.16 -32.7,13.16"
         style="fill:#ffffff;fill-opacity:1;fill-rule:nonzero;stroke:none"
         id="path112" />
      <path
         d="m 8368.94,2795.96 c -4.22,-4.81 -9.3,-7.13 -15.51,-7.13 -6.26,0 -11.33,2.34 -15.5,7.16 -4.22,4.87 -6.36,12.96 -6.36,24.07 0,10.14 2.17,17.8 6.45,22.76 4.23,4.9 9.18,7.29 15.15,7.29 6.09,0 11.18,-2.44 15.55,-7.44 4.41,-5.03 6.64,-12.82 6.64,-23.12 0,-10.81 -2.16,-18.74 -6.42,-23.59 z m 6.6,64.26 c -6.58,5.69 -14.46,8.56 -23.48,8.56 -8.57,0 -16.18,-2.18 -22.61,-6.49 -6.4,-4.28 -11.34,-10.42 -14.68,-18.23 -3.28,-7.65 -4.94,-16.09 -4.94,-25.11 0,-13.18 3.66,-24.66 10.85,-34.14 7.39,-9.72 17.91,-14.65 31.29,-14.65 8.39,0 15.78,2.57 22.06,7.69 -0.13,-7.03 -0.57,-10.3 -0.95,-11.81 -1.2,-4.48 -3.4,-7.85 -6.74,-10.31 -3.33,-2.44 -8.27,-3.68 -14.71,-3.68 -5.91,0 -10.57,1.23 -13.84,3.68 -2.19,1.61 -3.5,4.26 -4.02,8.08 l -0.3,2.21 -20.48,3.04 -0.09,-3.37 c -0.24,-10.77 3.41,-18.99 10.87,-24.44 7.14,-5.23 16.54,-7.87 27.95,-7.87 9.57,0 17.79,1.84 24.42,5.49 6.76,3.69 11.77,8.82 14.9,15.25 3.11,6.36 4.61,16.6 4.61,31.3 v 81.31 h -20.11 v -6.51"
         style="fill:#ffffff;fill-opacity:1;fill-rule:nonzero;stroke:none"
         id="path114" />
      <path
         d="m 8474.74,2830.13 h -43.94 c 0.88,5.7 3.11,10.25 6.76,13.83 4.27,4.19 9.4,6.22 15.7,6.22 6.93,0 12.39,-2.53 16.74,-7.8 2.32,-2.78 3.92,-6.89 4.74,-12.25 z m 0.38,-26.81 c -2.12,-5.89 -4.96,-10.2 -8.45,-12.78 -3.49,-2.59 -7.62,-3.85 -12.65,-3.85 -6.77,0 -12.26,2.29 -16.78,7.02 -4.01,4.18 -6.48,10.17 -7.36,17.82 h 67.23 l 0.09,2.89 c 0.05,1.86 0.08,3.26 0.08,4.19 0,15.68 -4.15,28.07 -12.32,36.84 -8.23,8.85 -18.95,13.33 -31.87,13.33 -13.31,0 -24.33,-4.57 -32.73,-13.59 -8.34,-8.93 -12.57,-21.56 -12.57,-37.52 0,-15.45 4.19,-27.7 12.46,-36.4 8.32,-8.73 19.65,-13.17 33.7,-13.17 11.13,0 20.46,2.79 27.73,8.29 7.28,5.5 12.31,13.31 14.99,23.19 l 0.89,3.31 -21.64,2.67 -0.8,-2.24"
         style="fill:#ffffff;fill-opacity:1;fill-rule:nonzero;stroke:none"
         id="path116" />
      <path
         d="m 8588.77,2844.39 c -0.99,4.77 -2.76,8.97 -5.26,12.47 -2.59,3.63 -6.48,6.56 -11.54,8.73 -4.93,2.11 -10.39,3.19 -16.23,3.19 -10.48,0 -19.14,-3.26 -25.87,-9.71 v 7.66 h -19.77 v -96.57 h 21.32 v 52.46 c 0,10.66 2.05,17.86 6.1,21.4 4.23,3.69 9.12,5.49 14.98,5.49 3.52,0 6.6,-0.79 9.16,-2.34 2.49,-1.52 4.16,-3.46 5.13,-5.95 1.05,-2.73 1.58,-7.1 1.58,-12.97 v -58.09 h 21.32 v 58.69 c 0,7.37 -0.3,12.44 -0.92,15.54"
         style="fill:#ffffff;fill-opacity:1;fill-rule:nonzero;stroke:none"
         id="path118" />
      <path
         d="m 9117.48,2827.48 12.24,32.68 c 1.66,4.53 3.11,9.1 4.35,13.69 1.59,-4.7 3.49,-9.96 5.68,-15.77 l 11.54,-30.6 z m 5.6,73.72 -50.33,-131.04 h 24.01 l 13.73,37.88 h 48.18 l 14.58,-37.88 h 25.35 l -53.64,131.04 h -21.88"
         style="fill:#ffffff;fill-opacity:1;fill-rule:nonzero;stroke:none"
         id="path120" />
      <path
         d="m 9275.85,2856.86 c -2.59,3.63 -6.47,6.56 -11.52,8.72 -4.94,2.12 -10.39,3.2 -16.24,3.2 -10.47,0 -19.14,-3.26 -25.86,-9.71 v 7.66 h -19.78 v -96.57 h 21.31 v 52.46 c 0,10.66 2.05,17.86 6.11,21.4 4.23,3.69 9.12,5.49 14.97,5.49 3.53,0 6.62,-0.79 9.16,-2.34 2.49,-1.52 4.17,-3.46 5.13,-5.95 1.06,-2.73 1.59,-7.11 1.59,-12.97 v -58.09 h 21.32 v 58.69 c 0,7.37 -0.29,12.44 -0.92,15.54 -0.99,4.77 -2.76,8.97 -5.27,12.47"
         style="fill:#ffffff;fill-opacity:1;fill-rule:nonzero;stroke:none"
         id="path122" />
      <path
         d="m 9318.42,2803.12 c 1.1,1.71 2.66,2.97 4.74,3.88 2.37,1.03 6.62,1.98 12.64,2.86 9.05,1.3 16.2,2.79 21.69,4.52 v -1.4 c 0,-6.29 -0.74,-11.03 -2.19,-14.07 -1.9,-3.97 -4.82,-7.02 -8.92,-9.32 -4.14,-2.32 -8.96,-3.5 -14.33,-3.5 -5.19,0 -9.11,1.13 -11.64,3.35 -2.45,2.16 -3.64,4.78 -3.64,8.01 0,2.1 0.53,3.96 1.65,5.67 z m 61.49,-18.6 c -0.62,3.59 -0.94,12.53 -0.94,26.58 v 20.48 c 0,7.09 -0.27,11.91 -0.84,14.8 -1,4.65 -2.82,8.6 -5.39,11.71 -2.6,3.16 -6.61,5.77 -11.91,7.76 -5.16,1.94 -11.86,2.93 -19.9,2.93 -8.11,0 -15.36,-1.14 -21.57,-3.38 -6.42,-2.32 -11.44,-5.7 -14.9,-10.08 -3.41,-4.31 -5.87,-9.96 -7.32,-16.81 l -0.67,-3.13 20.82,-2.84 0.67,2.57 c 1.46,5.71 3.65,9.67 6.51,11.78 2.9,2.13 7.7,3.22 14.24,3.22 6.94,0 12.17,-1.51 15.52,-4.47 2.22,-1.95 3.34,-5.65 3.34,-10.98 l -0.03,-1.84 c -5.66,-1.7 -14,-3.22 -24.83,-4.51 -6.29,-0.77 -10.88,-1.55 -14.09,-2.4 -4.37,-1.2 -8.39,-3.04 -11.92,-5.43 -3.65,-2.48 -6.64,-5.8 -8.87,-9.87 -2.25,-4.09 -3.4,-8.66 -3.4,-13.59 0,-8.4 3.03,-15.42 8.99,-20.85 5.9,-5.35 14.29,-8.07 24.96,-8.07 6.37,0 12.41,1.08 18,3.18 4.29,1.64 8.75,4.17 13.28,7.55 0.59,-2.55 1.43,-4.91 2.49,-7.03 l 0.83,-1.64 h 22.95 l -2.47,4.42 c -1.76,3.15 -2.96,6.5 -3.55,9.94"
         style="fill:#ffffff;fill-opacity:1;fill-rule:nonzero;stroke:none"
         id="path124" />
      <path
         d="m 9450.04,2795.96 c -4.22,-4.81 -9.3,-7.13 -15.51,-7.13 -6.26,0 -11.33,2.34 -15.5,7.16 -4.22,4.87 -6.35,12.96 -6.35,24.07 0,10.14 2.16,17.8 6.44,22.76 4.23,4.9 9.18,7.29 15.16,7.29 6.08,0 11.17,-2.44 15.54,-7.44 4.41,-5.03 6.64,-12.82 6.64,-23.12 0,-10.81 -2.15,-18.74 -6.42,-23.59 z m 6.6,64.26 c -6.58,5.69 -14.45,8.56 -23.48,8.56 -8.57,0 -16.18,-2.18 -22.6,-6.49 -6.41,-4.28 -11.35,-10.42 -14.69,-18.23 -3.27,-7.65 -4.93,-16.09 -4.93,-25.11 0,-13.18 3.65,-24.66 10.85,-34.14 7.38,-9.72 17.91,-14.65 31.29,-14.65 8.38,0 15.78,2.57 22.06,7.69 -0.14,-7.03 -0.58,-10.3 -0.96,-11.81 -1.2,-4.48 -3.4,-7.85 -6.74,-10.31 -3.33,-2.44 -8.27,-3.68 -14.71,-3.68 -5.9,0 -10.56,1.23 -13.83,3.68 -2.2,1.61 -3.51,4.26 -4.03,8.08 l -0.3,2.21 -20.48,3.04 -0.09,-3.37 c -0.25,-10.77 3.41,-18.99 10.87,-24.44 7.14,-5.23 16.55,-7.87 27.95,-7.87 9.57,0 17.79,1.84 24.43,5.49 6.74,3.69 11.76,8.82 14.9,15.25 3.1,6.36 4.61,16.6 4.61,31.3 v 81.31 h -20.12 v -6.51"
         style="fill:#ffffff;fill-opacity:1;fill-rule:nonzero;stroke:none"
         id="path126" />
      <path
         d="m 9555.84,2830.13 h -43.94 c 0.88,5.7 3.11,10.25 6.75,13.83 4.28,4.19 9.42,6.22 15.72,6.22 6.92,0 12.39,-2.53 16.73,-7.8 2.33,-2.78 3.92,-6.89 4.74,-12.25 z m 0.38,-26.81 c -2.12,-5.89 -4.96,-10.2 -8.45,-12.78 -3.48,-2.59 -7.61,-3.85 -12.64,-3.85 -6.78,0 -12.27,2.29 -16.79,7.02 -4,4.18 -6.47,10.17 -7.35,17.82 h 67.21 l 0.1,2.89 c 0.05,1.86 0.08,3.26 0.08,4.19 0,15.68 -4.14,28.07 -12.32,36.84 -8.23,8.85 -18.95,13.33 -31.87,13.33 -13.31,0 -24.33,-4.57 -32.73,-13.59 -8.33,-8.93 -12.56,-21.56 -12.56,-37.52 0,-15.45 4.19,-27.7 12.46,-36.4 8.31,-8.73 19.65,-13.17 33.68,-13.17 11.14,0 20.48,2.79 27.74,8.29 7.28,5.5 12.32,13.31 14.99,23.18 l 0.89,3.32 -21.64,2.67 -0.8,-2.24"
         style="fill:#ffffff;fill-opacity:1;fill-rule:nonzero;stroke:none"
         id="path128" />
      <path
         d="m 9664.61,2856.86 c -2.59,3.63 -6.48,6.56 -11.53,8.72 -4.94,2.12 -10.39,3.2 -16.24,3.2 -10.47,0 -19.13,-3.26 -25.86,-9.71 v 7.66 h -19.78 v -96.57 h 21.32 v 52.46 c 0,10.66 2.05,17.86 6.1,21.4 4.23,3.69 9.12,5.49 14.98,5.49 3.52,0 6.61,-0.79 9.15,-2.34 2.5,-1.52 4.17,-3.46 5.14,-5.95 1.06,-2.73 1.58,-7.11 1.58,-12.97 v -58.09 h 21.32 v 58.69 c 0,7.37 -0.29,12.44 -0.92,15.54 -0.99,4.77 -2.76,8.97 -5.26,12.47"
         style="fill:#ffffff;fill-opacity:1;fill-rule:nonzero;stroke:none"
         id="path130" />
      <path
         d="m 9790.55,2863.39 c -5.8,3.57 -11.64,5.39 -17.36,5.39 -4.17,0 -8.05,-1.21 -11.53,-3.61 -1.68,-1.14 -3.37,-2.8 -5.11,-5.01 v 6.57 h -19.78 v -96.57 h 21.32 v 50.42 c 0,6.15 0.81,11.88 2.42,17.01 0.95,3.01 2.48,5.28 4.67,6.93 2.16,1.63 4.54,2.43 7.25,2.43 3.2,0 6.47,-0.98 9.75,-2.92 l 3.06,-1.8 7.39,19.87 -2.08,1.29"
         style="fill:#ffffff;fill-opacity:1;fill-rule:nonzero;stroke:none"
         id="path132" />
      <path
         d="m 9856.96,2830.13 h -43.93 c 0.88,5.7 3.1,10.25 6.75,13.83 4.27,4.19 9.41,6.22 15.71,6.22 6.92,0 12.39,-2.53 16.74,-7.8 2.32,-2.78 3.91,-6.89 4.73,-12.25 z m 0.38,-26.81 c -2.12,-5.89 -4.96,-10.2 -8.44,-12.78 -3.49,-2.59 -7.62,-3.85 -12.65,-3.85 -6.78,0 -12.27,2.29 -16.79,7.02 -4,4.18 -6.47,10.17 -7.35,17.82 h 67.23 l 0.08,2.89 c 0.05,1.86 0.08,3.26 0.08,4.19 0,15.68 -4.14,28.07 -12.31,36.84 -8.23,8.85 -18.96,13.33 -31.88,13.33 -13.31,0 -24.32,-4.57 -32.72,-13.59 -8.34,-8.94 -12.57,-21.56 -12.57,-37.52 0,-15.45 4.19,-27.7 12.46,-36.4 8.32,-8.73 19.65,-13.17 33.68,-13.17 11.14,0 20.48,2.79 27.75,8.29 7.27,5.5 12.31,13.31 14.99,23.18 l 0.89,3.32 -21.65,2.67 -0.8,-2.24"
         style="fill:#ffffff;fill-opacity:1;fill-rule:nonzero;stroke:none"
         id="path134" />
      <path
         d="m 9951.82,2823.69 c -4.47,1.92 -12.03,4.3 -23.14,7.27 -9.21,2.51 -12.32,3.47 -13.24,3.81 -2.16,0.87 -3.71,1.93 -4.66,3.18 -0.83,1.05 -1.24,2.21 -1.24,3.52 0,2.18 1.1,4.1 3.37,5.84 2.42,1.89 7.02,2.87 13.28,2.87 5.26,0 9.29,-1.09 12,-3.27 2.69,-2.15 4.27,-5.09 4.85,-9.02 l 0.43,-2.92 20.97,2.86 -0.5,3.03 c -1.04,6.29 -3,11.44 -5.82,15.3 -2.9,3.96 -7.35,7.1 -13.26,9.35 -5.69,2.16 -12.35,3.27 -19.78,3.27 -4.97,0 -9.72,-0.66 -14.11,-1.96 -4.44,-1.31 -8.03,-2.97 -10.66,-4.91 -3.54,-2.54 -6.38,-5.76 -8.44,-9.6 -2.08,-3.84 -3.13,-8.1 -3.13,-12.62 0,-4.98 1.28,-9.59 3.81,-13.71 2.54,-4.15 6.29,-7.44 11.15,-9.76 4.58,-2.18 12.42,-4.66 23.99,-7.58 10.49,-2.64 13.77,-4.15 14.78,-4.8 2.17,-1.44 3.18,-3.26 3.18,-5.71 0,-2.97 -1.32,-5.53 -4.06,-7.83 -2.84,-2.4 -7.48,-3.61 -13.78,-3.61 -6.25,0 -11.11,1.4 -14.44,4.17 -3.33,2.78 -5.32,6.75 -6.08,12.12 l -0.41,3 -21.19,-3.32 0.54,-2.99 c 1.83,-10.32 6.16,-18.25 12.89,-23.58 6.68,-5.3 16.37,-7.99 28.78,-7.99 7.48,0 14.32,1.33 20.3,3.97 6.15,2.7 10.93,6.6 14.22,11.58 3.3,5 4.97,10.41 4.97,16.1 0,5.83 -1.41,10.82 -4.2,14.85 -2.75,3.96 -6.58,7.03 -11.37,9.09"
         style="fill:#ffffff;fill-opacity:1;fill-rule:nonzero;stroke:none"
         id="path136" />
      <path
         d="m 10015.8,2789.81 c -2.6,-0.37 -4.8,-0.56 -6.3,-0.56 -2.3,0 -3.3,0.43 -3.7,0.68 l -1.5,1.62 c -0.1,0.22 -0.6,1.59 -0.6,7.27 v 50 h 15.5 v 17.91 h -15.5 v 33.95 l -21.19,-12.81 v -21.14 h -11.26 v -17.91 h 11.26 v -49.15 c 0,-9.86 0.67,-16 2.13,-19.32 1.5,-3.47 4.11,-6.27 7.73,-8.36 3.56,-2.04 8.33,-3.03 14.43,-3.03 3.6,0 7.7,0.47 12.2,1.43 l 2.8,0.58 -3.1,19.26 -2.9,-0.42"
         style="fill:#ffffff;fill-opacity:1;fill-rule:nonzero;stroke:none"
         id="path138" />
      <path
         d="m 10047,2803.12 c 1.1,1.71 2.7,2.97 4.8,3.88 2.3,1.03 6.6,1.98 12.6,2.86 9.1,1.3 16.2,2.79 21.7,4.52 v -1.4 c 0,-6.29 -0.7,-11.03 -2.2,-14.07 -1.9,-3.97 -4.8,-7.02 -8.9,-9.32 -4.1,-2.32 -9,-3.5 -14.3,-3.5 -5.2,0 -9.1,1.13 -11.7,3.35 -2.4,2.16 -3.6,4.78 -3.6,8.01 0,2.1 0.5,3.96 1.6,5.67 z m 61.5,-18.6 c -0.6,3.59 -0.9,12.53 -0.9,26.58 v 20.48 c 0,7.09 -0.3,11.91 -0.8,14.8 -1.1,4.65 -2.9,8.6 -5.4,11.71 -2.6,3.16 -6.7,5.77 -12,7.76 -5.1,1.94 -11.8,2.93 -19.9,2.93 -8.1,0 -15.3,-1.14 -21.5,-3.38 -6.4,-2.32 -11.5,-5.7 -14.9,-10.08 -3.4,-4.31 -5.9,-9.96 -7.3,-16.81 l -0.7,-3.13 20.8,-2.84 0.7,2.57 c 1.4,5.71 3.6,9.67 6.5,11.78 2.9,2.13 7.7,3.22 14.2,3.22 7,0 12.2,-1.51 15.5,-4.47 2.3,-1.95 3.4,-5.65 3.4,-10.98 v -1.84 c -5.7,-1.7 -14,-3.22 -24.9,-4.51 -6.3,-0.77 -10.9,-1.55 -14.1,-2.4 -4.3,-1.2 -8.4,-3.04 -11.9,-5.43 -3.6,-2.48 -6.6,-5.8 -8.9,-9.87 -2.2,-4.09 -3.4,-8.66 -3.4,-13.59 0,-8.4 3.1,-15.42 9,-20.85 5.9,-5.35 14.3,-8.07 25,-8.07 6.4,0 12.4,1.08 18,3.18 4.3,1.64 8.7,4.17 13.3,7.55 0.6,-2.55 1.4,-4.91 2.5,-7.03 l 0.8,-1.64 h 22.9 l -2.4,4.42 c -1.8,3.15 -3,6.5 -3.6,9.94"
         style="fill:#ffffff;fill-opacity:1;fill-rule:nonzero;stroke:none"
         id="path140" />
      <path
         d="m 10222.6,2790.23 -2.9,-0.42 c -2.6,-0.37 -4.7,-0.56 -6.3,-0.56 -2.2,0 -3.3,0.43 -3.7,0.68 l -1.5,1.62 c -0.1,0.22 -0.5,1.59 -0.5,7.27 v 50 h 15.4 v 17.91 h -15.4 v 33.95 l -21.3,-12.81 v -21.14 h -11.2 v -1.26 c -4.5,2.18 -9.1,3.31 -13.5,3.31 -4.2,0 -8.1,-1.21 -11.5,-3.61 -1.7,-1.14 -3.4,-2.8 -5.2,-5.01 v 6.57 h -19.7 v -96.57 h 21.3 v 50.42 c 0,6.15 0.8,11.88 2.4,17.01 1,3.01 2.5,5.28 4.7,6.93 2.1,1.63 4.5,2.43 7.2,2.43 3.2,0 6.5,-0.98 9.8,-2.92 l 3,-1.8 2.5,6.59 h 10.2 v -49.15 c 0,-9.86 0.7,-16 2.2,-19.32 1.5,-3.47 4.1,-6.27 7.7,-8.36 3.6,-2.04 8.3,-3.03 14.5,-3.03 3.6,0 7.7,0.47 12.2,1.43 l 2.8,0.58 -3.2,19.26"
         style="fill:#ffffff;fill-opacity:1;fill-rule:nonzero;stroke:none"
         id="path142" />
      <path
         d="m 4974.7,2326.28 c 24.56,23.66 41.95,42.27 41.95,66.21 0,18.91 -12.32,37.98 -39.82,37.98 -13.29,0 -26.01,-4.57 -35.84,-12.87 l -2.02,-1.71 8.1,-17.9 3.53,2.95 c 4.14,3.43 12.62,9.22 22.94,9.22 16.57,0 20.05,-10.71 20.05,-19.65 -0.17,-16.13 -12.83,-30.76 -43.11,-59.56 l -13.64,-13.27 v -14.83 h 82.73 v 20.31 h -48.25 l 3.38,3.12"
         style="fill:#ff7676;fill-opacity:1;fill-rule:nonzero;stroke:none"
         id="path144" />
      <path
         d="m 5034.73,2346.28 h 52.07 v 18.87 h -52.07 v -18.87"
         style="fill:#ff7676;fill-opacity:1;fill-rule:nonzero;stroke:none"
         id="path146" />
      <path
         d="m 5140.33,2359.46 c 16.02,-4.72 22.58,-11.22 22.58,-22.27 0,-10.57 -8.13,-17.67 -20.23,-17.67 -6.29,0 -11.79,2.12 -15.46,5.98 -3.3,3.44 -4.99,8.06 -4.76,13.15 0,9.68 6.5,17.21 17.87,20.81 z m 2.54,52.52 c 15.38,0 16.57,-12.14 16.57,-15.85 0,-10.9 -9.6,-15.95 -14.7,-17.87 -13.13,3.71 -19,9.37 -19,18.23 0,7.72 5.3,15.49 17.13,15.49 z m 23.05,-41.94 c 13.64,8.83 15.85,20.88 15.85,27.73 0,15.75 -11.89,32.7 -37.99,32.7 -23.28,0 -40.18,-14.75 -40.18,-35.06 0,-10.85 5.52,-20.34 15.36,-26.79 -13.06,-7.3 -19.92,-18.31 -19.92,-32.16 0,-17.7 14.86,-35.62 43.27,-35.62 25.4,0 43.84,15.98 43.84,38 0,13.33 -7.13,24.23 -20.23,31.2"
         style="fill:#ff7676;fill-opacity:1;fill-rule:nonzero;stroke:none"
         id="path148" />
      <path
         d="m 5307.29,2398.17 -18.32,-54.19 c -0.89,-2.63 -1.74,-5.34 -2.53,-7.98 -0.82,2.57 -1.69,5.2 -2.55,7.7 l -20.18,54.47 h -25.13 l 34.55,-86.09 c 0.76,-2.1 0.88,-2.77 0.88,-2.9 l -0.98,-2.5 c -2.87,-6.47 -7.53,-12.66 -12.57,-16.63 -5.28,-4.48 -10.74,-6.53 -12.85,-7.19 l -3.26,-1.04 5.88,-19.8 3.09,0.56 c 2.57,0.47 11.71,2.66 21.37,11.2 12.22,10.58 20.42,28.09 31.27,56.69 l 25.91,67.7 h -24.58"
         style="fill:#ff7676;fill-opacity:1;fill-rule:nonzero;stroke:none"
         id="path150" />
      <path
         d="m 5373.33,2381.69 c 5.38,0 9.69,-1.62 12.81,-4.8 4.17,-4.23 5.45,-10.29 5.82,-14.3 h -39.09 c 2.02,8.42 7.9,19.1 20.46,19.1 z m 1.28,18.49 c -26.45,0 -44.92,-21.02 -44.92,-51.13 0,-29.17 18.42,-48.03 46.93,-48.03 14.89,0 24.98,3.15 30.82,5.79 l 2.63,1.19 -4.36,18.33 -3.82,-1.61 c -5.23,-2.23 -11.66,-4.29 -23.08,-4.29 -7.52,0 -24.55,2.39 -26.6,23.66 h 61.48 l 0.43,3.81 c 0.2,1.73 0.48,4.16 0.48,7.17 0,22.45 -12.36,45.11 -39.99,45.11"
         style="fill:#ff7676;fill-opacity:1;fill-rule:nonzero;stroke:none"
         id="path152" />
      <path
         d="m 5474.05,2347.95 v -11.86 c 0,-1.14 -0.27,-2.6 -0.72,-3.97 -1.96,-5.72 -7.86,-12.41 -18.04,-12.41 -2.74,0 -11.65,0.85 -11.65,11.82 0,10.74 10.23,16.26 30.41,16.42 z m 22.51,-20.43 v 33.03 c 0,25.55 -13.17,39.63 -37.08,39.63 -11.43,0 -22.69,-3.07 -30.92,-8.41 l -2.29,-1.5 6,-17.37 3.75,2.41 c 5.83,3.76 13.71,6.01 21.09,6.01 10.61,0 16.03,-5 16.54,-15.3 -33.77,-0.66 -53.06,-13.81 -53.06,-36.31 0,-14.35 10.47,-28.87 30.5,-28.87 9.5,0 18.37,3.32 24.9,9.1 l 0.81,-7.09 h 21.92 l -0.76,4.13 c -0.93,5.12 -1.4,12.02 -1.4,20.54"
         style="fill:#ff7676;fill-opacity:1;fill-rule:nonzero;stroke:none"
         id="path154" />
      <path
         d="m 5558.05,2400.18 c -8.64,0 -16.54,-4.14 -22.05,-11.1 l -0.29,9.09 h -21.19 l 0.26,-3.73 c 0.49,-7.46 0.72,-15.9 0.72,-27.32 v -64.27 h 22.87 v 50.58 c 0,2.48 0.35,4.89 0.68,6.86 1.99,10.95 8.91,17.76 18.08,17.76 1.82,0 3.23,-0.15 4.73,-0.48 l 4.25,-0.93 v 22.22 l -2.64,0.66 c -1.86,0.47 -3.43,0.66 -5.42,0.66"
         style="fill:#ff7676;fill-opacity:1;fill-rule:nonzero;stroke:none"
         id="path156" />
      <path
         d="m 5608.39,2360.89 c -12.51,4.78 -14.53,7.37 -14.53,11.71 0,5.18 4.43,8.54 11.28,8.54 8.1,0 14.03,-3.2 16.19,-4.58 l 3.75,-2.36 6.38,18.56 -2.45,1.45 c -6.3,3.74 -15.08,5.97 -23.5,5.97 -19.69,0 -33.98,-12.37 -33.98,-29.42 0,-8.73 4.46,-20.72 25.65,-28.27 11.95,-4.41 14.14,-7.83 14.14,-12.96 0,-6.13 -4.98,-9.64 -13.66,-9.64 -7.17,0 -14.83,2.92 -19.25,5.81 l -3.82,2.5 -6.32,-19.24 2.43,-1.43 c 7.03,-4.13 16.72,-6.51 26.59,-6.51 22.2,0 36.53,11.76 36.53,29.97 0,17.92 -13.59,25.4 -25.43,29.9"
         style="fill:#ff7676;fill-opacity:1;fill-rule:nonzero;stroke:none"
         id="path158" />
      <path
         d="m 6797.36,2287.27 c 24.57,23.67 41.96,42.26 41.96,66.21 0,18.9 -12.32,37.98 -39.82,37.98 -13.28,0 -26.01,-4.57 -35.84,-12.87 l -2.01,-1.7 8.09,-17.92 3.54,2.95 c 4.12,3.45 12.6,9.23 22.94,9.23 16.56,0 20.04,-10.7 20.04,-19.65 -0.17,-16.13 -12.83,-30.76 -43.11,-59.57 l -13.65,-13.26 v -14.82 h 82.74 v 20.31 H 6794 l 3.36,3.11"
         style="fill:#ff7676;fill-opacity:1;fill-rule:nonzero;stroke:none"
         id="path160" />
      <path
         d="m 6857.4,2307.27 h 52.07 v 18.87 h -52.07 v -18.87"
         style="fill:#ff7676;fill-opacity:1;fill-rule:nonzero;stroke:none"
         id="path162" />
      <path
         d="m 6943.99,2315.73 25.46,35.4 c 1.2,2 2.32,3.91 3.4,5.76 -0.03,-1.69 -0.05,-3.38 -0.05,-5.06 v -36.1 z m 50.96,73.73 h -22.66 l -54.59,-78.12 v -15.19 h 55.1 v -32.3 h 22.15 v 32.3 h 16.6 v 19.58 h -16.6 v 73.73"
         style="fill:#ff7676;fill-opacity:1;fill-rule:nonzero;stroke:none"
         id="path164" />
      <path
         d="m 7177.83,2359.16 -13.32,-46.9 c -1.37,-4.85 -2.73,-9.9 -3.95,-15.01 -1.3,4.77 -2.78,9.81 -4.48,15.29 l -14.45,46.62 h -18.64 l -15.25,-47.67 c -1.49,-4.87 -3.01,-9.83 -4.42,-14.74 -1.14,4.79 -2.42,9.71 -3.77,14.9 l -12.35,47.51 h -23.85 l 28.76,-95.31 h 19.71 l 15.05,44.38 c 1.64,5.01 3.31,10.33 4.88,16.09 1.4,-5.23 2.96,-10.37 4.7,-15.88 l 14.28,-44.59 h 19.7 l 30.72,95.31 h -23.32"
         style="fill:#ff7676;fill-opacity:1;fill-rule:nonzero;stroke:none"
         id="path166" />
      <path
         d="m 7244.38,2342.67 c 5.38,0 9.68,-1.61 12.81,-4.78 4.16,-4.24 5.44,-10.29 5.81,-14.31 h -39.08 c 2.02,8.42 7.89,19.09 20.46,19.09 z m 1.27,18.5 c -26.45,0 -44.93,-21.02 -44.93,-51.13 0,-29.17 18.43,-48.02 46.94,-48.02 14.88,0 24.97,3.14 30.82,5.78 l 2.63,1.19 -4.36,18.33 -3.81,-1.61 c -5.24,-2.23 -11.68,-4.29 -23.09,-4.29 -7.52,0 -24.55,2.4 -26.6,23.67 h 61.49 l 0.43,3.81 c 0.19,1.72 0.47,4.16 0.47,7.16 0,22.46 -12.36,45.11 -39.99,45.11"
         style="fill:#ff7676;fill-opacity:1;fill-rule:nonzero;stroke:none"
         id="path168" />
      <path
         d="m 7335.82,2342.67 c 5.38,0 9.69,-1.61 12.81,-4.78 4.16,-4.25 5.44,-10.29 5.81,-14.31 h -39.08 c 2.02,8.42 7.89,19.09 20.46,19.09 z m 1.28,18.5 c -26.46,0 -44.93,-21.02 -44.93,-51.13 0,-29.17 18.43,-48.02 46.93,-48.02 14.88,0 24.97,3.14 30.83,5.78 l 2.63,1.19 -4.37,18.33 -3.81,-1.61 c -5.25,-2.22 -11.67,-4.29 -23.09,-4.29 -7.52,0 -24.54,2.4 -26.59,23.67 h 61.48 l 0.43,3.85 c 0.21,1.73 0.48,4.14 0.48,7.12 0,22.46 -12.36,45.11 -39.99,45.11"
         style="fill:#ff7676;fill-opacity:1;fill-rule:nonzero;stroke:none"
         id="path170" />
      <path
         d="m 7508.83,2321.89 c -12.52,4.77 -14.54,7.36 -14.54,11.69 0,5.2 4.42,8.56 11.28,8.56 8.08,0 14.02,-3.21 16.2,-4.57 l 3.74,-2.37 6.37,18.56 -2.45,1.45 c -6.3,3.73 -15.08,5.96 -23.49,5.96 -19.69,0 -33.98,-12.36 -33.98,-29.4 0,-8.74 4.46,-20.74 25.65,-28.28 11.95,-4.43 14.14,-7.84 14.14,-12.96 0,-6.14 -4.98,-9.64 -13.66,-9.64 -7.16,0 -14.83,2.91 -19.26,5.81 l -3.82,2.49 -5.91,-18.02 -35.82,47.92 37.66,40.07 h -29.06 l -26.99,-31.74 -2.01,-2.46 v 75.45 H 7390 v -136.56 h 22.88 v 35.36 l 4.41,4.9 28.98,-40.26 h 28.31 l -3.54,4.73 0.09,-0.06 c 7.03,-4.13 16.72,-6.5 26.59,-6.5 22.19,0 36.53,11.76 36.53,29.95 0,14 -7.84,23.22 -25.42,29.92"
         style="fill:#ff7676;fill-opacity:1;fill-rule:nonzero;stroke:none"
         id="path172" />
      <path
         d="m 8550.08,2332.39 c 10.43,6.22 16.25,15.89 16.25,27.47 0,15.82 -11.58,31.79 -37.44,31.79 -13.65,0 -26.46,-4.92 -33.1,-9.81 l -2.1,-1.54 6.64,-18.49 3.76,2.69 c 4.65,3.32 13.11,7.2 21.69,7.2 11,0 17.31,-5.26 17.31,-14.4 0,-12.15 -13.73,-16.57 -22.96,-16.57 h -12.44 v -19.04 h 12.44 c 13.01,0 26.99,-5.32 27.16,-20.29 0.09,-4.99 -1.76,-9.78 -5.08,-13.17 -4.08,-4.15 -10.22,-6.26 -18.25,-6.26 -10.73,0 -20.65,4.53 -24.39,6.93 l -3.72,2.38 -6.77,-19.15 2.3,-1.51 c 6.04,-3.97 18.25,-8.6 32.76,-8.6 32.3,0 46.75,19.63 46.75,39.08 0,14.15 -7.93,25.73 -20.81,31.29"
         style="fill:#ff7676;fill-opacity:1;fill-rule:nonzero;stroke:none"
         id="path174" />
      <path
         d="m 8588.24,2307.46 h 52.07 v 18.86 h -52.07 v -18.86"
         style="fill:#ff7676;fill-opacity:1;fill-rule:nonzero;stroke:none"
         id="path176" />
      <path
         d="m 8696.02,2372.43 c 18.75,0 20.77,-22.58 20.77,-32.27 0,-2.25 -0.53,-3.35 -0.98,-4.07 -3.94,-6.7 -11.55,-10.69 -20.35,-10.69 -11.72,0 -19.31,8.51 -19.31,21.69 0,14.91 8.17,25.34 19.87,25.34 z m 1.27,19.22 c -24.68,0 -44.01,-20.06 -44.01,-45.66 0,-23.07 16.2,-39.81 38.54,-39.81 8.55,0 16.21,2.27 22.59,6.64 -2.59,-7.87 -6.68,-14.36 -12.22,-19.39 -6.01,-5.69 -13.92,-9.35 -22.77,-10.57 -3.82,-0.38 -6.96,-0.67 -9.56,-0.67 -0.94,0 -1.83,0.04 -2.68,0.12 l -3.87,0.4 v -20.36 l 3.34,-0.14 c 0.91,-0.05 1.88,-0.07 2.91,-0.07 4.03,0 8.27,0.34 12.43,1 13.91,1.58 27.23,7.72 36.54,16.84 9.8,9.5 21.5,27.3 21.5,58.16 0,32.51 -16.78,53.51 -42.74,53.51"
         style="fill:#ff7676;fill-opacity:1;fill-rule:nonzero;stroke:none"
         id="path178" />
      <path
         d="m 8906.03,2361.36 c -8.67,0 -15.34,-2.13 -21.63,-6.91 -2.76,-2.07 -5.3,-4.62 -7.5,-7.52 -5.43,9.03 -14.8,14.43 -25.62,14.43 -10.25,0 -18.71,-3.54 -25.25,-10.53 l -0.44,8.51 h -21.15 l 0.29,-3.76 c 0.49,-6.71 0.71,-13.78 0.71,-23.64 v -67.92 h 22.69 v 56.79 c 0,2.54 0.37,4.81 1.12,6.79 2.08,6.55 8.15,13.62 16.55,13.62 13.48,0 14.93,-14.53 14.93,-20.78 v -56.42 h 22.7 v 58.07 c 0,2.3 0.4,4.83 1.08,6.87 2.12,6.11 7.79,12.26 15.68,12.26 10.39,0 15.66,-7.97 15.66,-23.69 v -53.51 h 22.69 v 55.51 c 0,30.87 -17.51,41.83 -32.51,41.83"
         style="fill:#ff7676;fill-opacity:1;fill-rule:nonzero;stroke:none"
         id="path180" />
      <path
         d="m 8997.85,2281.06 c -13.51,0 -23.33,12.81 -23.33,30.44 0,15.33 7.33,30.81 23.69,30.81 18.17,0 22.97,-19.91 22.97,-30.44 0,-17.86 -9.81,-30.81 -23.33,-30.81 z m 0.72,80.3 c -27.84,0 -47.29,-20.73 -47.29,-50.4 0,-28.82 18.85,-48.94 45.84,-48.94 22.87,0 47.48,15.77 47.48,50.39 0,28.82 -18.93,48.95 -46.03,48.95"
         style="fill:#ff7676;fill-opacity:1;fill-rule:nonzero;stroke:none"
         id="path182" />
      <path
         d="m 9105.35,2361.36 c -11.83,0 -20.77,-4.8 -26.64,-10.78 l -0.55,8.76 h -21.28 l 0.28,-3.76 c 0.5,-6.7 0.72,-13.78 0.72,-23.64 v -67.92 h 23.05 v 56.6 c 0,2.46 0.33,4.75 0.95,6.47 2.11,6.94 8.57,13.94 18.18,13.94 11.25,0 16.94,-7.6 16.94,-22.59 v -54.42 h 23.06 v 56.24 c 0,30.33 -18.7,41.1 -34.71,41.1"
         style="fill:#ff7676;fill-opacity:1;fill-rule:nonzero;stroke:none"
         id="path184" />
      <path
         d="m 9184.79,2385.77 -22.69,-6.06 v -20.37 h -13.69 v -19.22 h 13.69 v -44.67 c 0,-12.25 2.28,-20.32 7.07,-25.3 4.54,-5.2 11.45,-7.95 19.97,-7.95 6.16,0 11.69,0.87 15.56,2.45 l 2.32,0.94 -1.14,18.86 -4.17,-1.14 c -1.61,-0.45 -4.38,-0.98 -8.38,-0.98 -4.13,0 -8.54,1.06 -8.54,13.67 v 44.12 h 22.99 v 19.22 h -22.99 v 26.43"
         style="fill:#ff7676;fill-opacity:1;fill-rule:nonzero;stroke:none"
         id="path186" />
      <path
         d="m 9266.71,2361.36 c -6.19,0 -12.47,-1.74 -18.13,-5.01 -2.41,-1.34 -4.65,-2.98 -6.66,-4.85 v 49.09 h -23.05 v -136.57 h 23.05 v 56.79 c 0,2.68 0.14,4.67 0.92,6.56 2.27,6.81 8.77,13.66 18.2,13.66 14.01,0 16.95,-12.38 16.95,-22.77 v -54.24 h 23.05 v 56.07 c 0,30.46 -18.49,41.27 -34.33,41.27"
         style="fill:#ff7676;fill-opacity:1;fill-rule:nonzero;stroke:none"
         id="path188" />
      <path
         d="m 9350.91,2323.9 c -12.52,4.77 -14.53,7.36 -14.53,11.69 0,5.19 4.42,8.55 11.28,8.55 8.1,0 14.02,-3.2 16.19,-4.57 l 3.74,-2.37 6.37,18.56 -2.44,1.45 c -6.3,3.74 -15.08,5.97 -23.5,5.97 -19.69,0 -33.98,-12.37 -33.98,-29.41 0,-8.74 4.46,-20.73 25.65,-28.28 11.95,-4.42 14.14,-7.83 14.14,-12.96 0,-6.13 -4.97,-9.64 -13.65,-9.64 -7.17,0 -14.84,2.92 -19.26,5.81 l -3.82,2.5 -6.31,-19.24 2.42,-1.42 c 7.03,-4.14 16.73,-6.52 26.6,-6.52 22.19,0 36.53,11.77 36.53,29.96 0,17.93 -13.6,25.4 -25.43,29.92"
         style="fill:#ff7676;fill-opacity:1;fill-rule:nonzero;stroke:none"
         id="path190" />
      <path
         d="m 5326.85,3777.67 c 0,-29.52 -2.24,-58.49 -6.65,-86.7 -7.13,-46.1 -19.87,-90.32 -37.5,-132.03 -11.62,-27.49 -25.4,-53.94 -41.14,-78.99 -43.73,-69.9 -102.51,-129.51 -171.71,-174.3 -60.73,-39.39 -129.72,-67.3 -203.68,-80.67 -32.81,-5.95 -66.61,-9.09 -101.11,-9.09 -42.12,0 -83.19,4.62 -122.58,13.49 -2.52,0.57 -5.04,1.13 -7.56,1.76 -17.7,4.12 -35.06,9.16 -52.13,14.97 -35.61,12.18 -69.62,27.86 -101.67,46.67 -54.71,32.19 -103.48,73.19 -144.34,121.33 -22.32,26.31 -42.26,54.79 -59.55,84.94 -28.96,50.59 -50.3,106.14 -62.41,164.99 -7.56,36.74 -11.48,74.73 -11.48,113.63 0,87.4 20.01,170.1 55.63,243.92 20.01,41.42 44.92,80.05 74.03,115.03 46.81,56.25 104.39,103.27 169.6,137.77 24.07,12.8 49.27,23.86 75.29,33.03 31.56,11.19 64.44,19.59 98.31,24.97 28.97,4.62 58.63,7 88.86,7 37.58,0 74.38,-3.71 109.93,-10.77 1.26,-0.21 2.44,-0.42 3.71,-0.71 59.12,-12.24 114.88,-33.65 165.54,-62.9 25.19,-14.34 49.05,-30.65 71.58,-48.77 1.96,-1.53 3.99,-3.15 5.95,-4.75 2.31,-1.75 4.55,-3.64 6.86,-5.6 19.8,-16.79 38.34,-34.99 55.55,-54.37 24.77,-27.64 46.81,-57.86 65.7,-90.05 28.97,-49.47 50.66,-103.62 63.47,-161.21 8.81,-39.39 13.5,-80.46 13.5,-122.59"
         style="fill:#ffffff;fill-opacity:1;fill-rule:nonzero;stroke:none"
         id="path192" />
      <path
         d="m 5326.85,3777.67 c 0,-29.52 -2.24,-58.49 -6.65,-86.7 -7.13,-46.1 -19.87,-90.32 -37.5,-132.03 -11.62,-27.49 -25.4,-53.94 -41.14,-78.99 -43.73,-69.9 -102.51,-129.51 -171.71,-174.3 -60.73,-39.39 -129.72,-67.3 -203.68,-80.67 -32.81,-5.95 -66.61,-9.09 -101.11,-9.09 -42.12,0 -83.19,4.62 -122.58,13.49 -2.52,0.57 -5.04,1.13 -7.56,1.76 -17.7,4.12 -35.06,9.16 -52.13,14.97 -35.61,12.18 -69.62,27.86 -101.67,46.67 -54.71,32.19 -103.48,73.19 -144.34,121.33 -22.32,26.31 -42.26,54.79 -59.55,84.94 -28.96,50.59 -50.3,106.14 -62.41,164.99 -7.56,36.74 -11.48,74.73 -11.48,113.63 0,87.4 20.01,170.1 55.63,243.92 20.01,41.42 44.92,80.05 74.03,115.03 46.81,56.25 104.39,103.27 169.6,137.77 24.07,12.8 49.27,23.86 75.29,33.03 31.56,11.19 64.44,19.59 98.31,24.97 -6.02,-30.71 -14.83,-61.22 -27.15,-91.52 -3.29,-7.97 -6.64,-15.88 -10.21,-23.79 -1.68,-4.05 -3.5,-8.04 -5.39,-12.03 -0.42,-0.98 -0.91,-2.03 -1.4,-3.01 -2.59,-5.53 -5.18,-10.99 -7.84,-16.45 -0.63,-1.32 -1.32,-2.65 -1.95,-3.98 -38.91,-78.92 -86.77,-153.73 -121.75,-234.61 -43.52,-100.83 -65.56,-219.22 -20.08,-319.2 18.26,-40.17 45.62,-73.68 78.71,-101.6 58.64,-49.19 130.49,-75.21 203.26,-77.95 3.36,-0.14 6.72,-0.27 10.15,-0.27 h 5.25 c 3.42,0 6.79,0.13 10.21,0.27 72.7,2.67 144.77,28.69 203.33,77.95 33.1,27.92 60.46,61.43 78.72,101.6 45.41,99.98 23.37,218.37 -20.15,319.2 -34.85,80.68 -82.64,155.33 -121.47,234.05 l -0.21,0.56 c -1.54,3.15 -3.07,6.3 -4.62,9.52 -1.96,3.98 -3.84,8.04 -5.73,12.1 -2.87,6.16 -5.74,12.45 -8.47,18.75 -2.73,6.23 -5.39,12.53 -7.98,18.89 -11.75,29.04 -20.43,58.29 -26.44,87.75 1.26,-0.21 2.44,-0.42 3.71,-0.71 59.12,-12.24 114.88,-33.65 165.54,-62.9 25.19,-14.34 49.05,-30.65 71.58,-48.77 1.96,-1.53 3.99,-3.15 5.95,-4.75 2.31,-1.75 4.55,-3.64 6.86,-5.6 19.8,-16.79 38.34,-34.99 55.55,-54.37 24.77,-27.64 46.81,-57.86 65.7,-90.05 28.97,-49.47 50.66,-103.62 63.47,-161.21 8.81,-39.39 13.5,-80.46 13.5,-122.59"
         style="fill:#ffe4d2;fill-opacity:1;fill-rule:nonzero;stroke:none"
         id="path194" />
      <path
         d="m 5241.56,3479.95 c -10.57,20.78 -16.52,44.29 -16.52,69.13 0,64.09 39.33,119.02 95.16,141.89 -7.13,-46.1 -19.87,-90.32 -37.5,-132.03 -10.44,-24.72 -22.64,-48.59 -36.44,-71.37 -1.55,-2.55 -3.11,-5.09 -4.7,-7.62 v 0"
         style="fill:#fdd7b8;fill-opacity:1;fill-rule:nonzero;stroke:none"
         id="path196" />
      <path
         d="m 4765.06,3215.89 c -42.12,0 -83.19,4.62 -122.58,13.49 -2.52,0.57 -5.04,1.13 -7.56,1.76 33.09,16.23 70.39,25.32 109.78,25.32 44.09,0 85.5,-11.4 121.47,-31.48 -32.81,-5.95 -66.61,-9.09 -101.11,-9.09"
         style="fill:#fdd7b8;fill-opacity:1;fill-rule:nonzero;stroke:none"
         id="path198" />
      <path
         d="m 4258.97,4021.59 c 20.01,41.42 44.92,80.05 74.03,115.03 0.28,-3.08 0.42,-6.16 0.42,-9.24 0,-48.7 -31.06,-90.19 -74.45,-105.79"
         style="fill:#fdd7b8;fill-opacity:1;fill-rule:nonzero;stroke:none"
         id="path200" />
      <path
         d="m 5184.18,4151.52 c -33.23,6.93 -59.68,32.19 -68.36,64.72 1.96,-1.53 3.99,-3.15 5.95,-4.75 2.31,-1.75 4.55,-3.64 6.86,-5.6 19.8,-16.79 38.34,-34.99 55.55,-54.37"
         style="fill:#fdd7b8;fill-opacity:1;fill-rule:nonzero;stroke:none"
         id="path202" />
      <path
         d="m 5183.41,3760.53 v -20.01 c -1.12,-49.33 -10.63,-99.92 -33.09,-149.17 -19.52,-43.04 -47.65,-81.95 -83.83,-116.09 -5.94,-5.66 -12.1,-11.19 -18.47,-16.51 -75.85,-63.81 -172.76,-99 -272.81,-99 -100.06,0 -196.97,35.19 -272.81,99 -6.37,5.32 -12.53,10.85 -18.47,16.51 -36.18,34.14 -64.24,73.05 -83.76,116.09 -22.46,49.25 -31.98,99.84 -33.09,149.17 v 20.01 c 1.88,82.63 26.23,160.79 52.47,221.46 22.32,51.63 48.98,99.98 74.73,146.72 l 0.84,1.54 c 10.42,19.17 16.65,38.97 19.17,58.7 3.78,29.6 -0.63,58.99 -11.69,85.44 24.07,12.8 49.27,23.86 75.29,33.03 31.56,11.19 64.44,19.59 98.31,24.97 -6.02,-30.71 -14.83,-61.22 -27.15,-91.52 -3.29,-7.97 -6.64,-15.88 -10.21,-23.79 -1.68,-4.05 -3.5,-8.04 -5.39,-12.03 -0.42,-0.98 -0.91,-2.03 -1.4,-3.01 -2.59,-5.53 -5.18,-10.99 -7.84,-16.45 -0.63,-1.32 -1.32,-2.65 -1.95,-3.98 l -0.57,-1.26 c -21.83,-51.92 -130.91,-327.88 -77.11,-548.01 25.13,-102.71 113.22,-178.48 217.82,-184.09 3.36,-0.14 6.72,-0.27 10.15,-0.27 h 5.25 c 3.43,0 6.78,0.13 10.21,0.27 104.75,5.61 192.91,81.51 217.89,184.44 53.88,221.11 -56.32,498.33 -77.46,548.36 l -0.21,0.56 c -1.54,3.15 -3.07,6.29 -4.62,9.52 -1.95,3.98 -3.84,8.04 -5.73,12.1 -2.87,6.16 -5.74,12.45 -8.47,18.75 -2.73,6.23 -5.39,12.53 -7.97,18.89 -11.76,29.04 -20.44,58.29 -26.45,87.75 1.26,-0.21 2.44,-0.42 3.71,-0.71 59.12,-12.24 114.88,-33.65 165.54,-62.9 -8.4,-23.93 -11.4,-49.88 -8.04,-76.06 2.52,-19.73 8.74,-39.53 19.17,-58.7 l 0.77,-1.54 c 25.74,-46.74 52.4,-95.09 74.72,-146.72 26.24,-60.67 50.66,-138.83 52.55,-221.46"
         style="fill:#ffaeae;fill-opacity:1;fill-rule:nonzero;stroke:none"
         id="path204" />
      <path
         d="m 4763.95,4109.25 c 4.06,-84.08 -16.24,-175.2 -50.21,-252.21 -22.88,-51.87 -54.21,-101.26 -63.16,-157.24 -8.03,-50.19 4.01,-104.47 37.25,-142.94 33.22,-38.46 88.44,-58.43 137.38,-44.68 48.94,13.74 86.83,63.45 81.96,114.06 -6.32,65.67 -72.44,107.67 -102.15,166.6 -49.51,98.21 9.86,218.92 -41.07,316.41"
         style="fill:#201d1e;fill-opacity:1;fill-rule:nonzero;stroke:none"
         id="path206" />
      <path
         d="m 3899.57,2983.68 0.29,4.63 v 0.13 l 4.75,46 4.09,39.33 15.73,213.44 15.43,208.76 -28.36,-422.22 -5.63,-85.31 -6.3,-4.76"
         style="fill:#d9a6a7;fill-opacity:1;fill-rule:nonzero;stroke:none"
         id="path312" />
      <path
         d="m 3899.53,2983.65 0.29,4.7 v 0.1 l 4.79,45.99 -4.75,-46 v -0.13 l -0.29,-4.63 -0.04,-0.03 m 24.9,303.56 15.8,214.32 -0.37,-5.56 -15.43,-208.76"
         style="fill:#cbeaec;fill-opacity:1;fill-rule:nonzero;stroke:none"
         id="path314" />
    </g>
  </g>
</svg>
